<svg xmlns="http://www.w3.org/2000/svg" xmlns:xlink="http://www.w3.org/1999/xlink" width="500" zoomAndPan="magnify" viewBox="0 0 375 374.999991" height="500" preserveAspectRatio="xMidYMid meet" version="1.0"><defs><clipPath id="77985377ee"><path d="M 22.53125 12 L 341 12 L 341 330 L 22.53125 330 Z M 22.53125 12 " clip-rule="nonzero"/></clipPath><clipPath id="85a21133b0"><path d="M 340.0625 170.71875 C 340.0625 173.316406 340 175.914062 339.871094 178.507812 C 339.742188 181.101562 339.550781 183.691406 339.296875 186.277344 C 339.042969 188.863281 338.726562 191.4375 338.34375 194.007812 C 337.960938 196.578125 337.519531 199.136719 337.011719 201.683594 C 336.503906 204.230469 335.9375 206.765625 335.304688 209.285156 C 334.671875 211.804688 333.980469 214.308594 333.226562 216.792969 C 332.472656 219.28125 331.65625 221.746094 330.78125 224.191406 C 329.90625 226.636719 328.972656 229.058594 327.976562 231.460938 C 326.984375 233.859375 325.929688 236.234375 324.820312 238.582031 C 323.710938 240.929688 322.542969 243.25 321.316406 245.539062 C 320.09375 247.832031 318.8125 250.089844 317.476562 252.316406 C 316.140625 254.546875 314.75 256.738281 313.308594 258.898438 C 311.863281 261.058594 310.371094 263.183594 308.820312 265.269531 C 307.273438 267.355469 305.675781 269.402344 304.027344 271.410156 C 302.378906 273.417969 300.683594 275.382812 298.9375 277.308594 C 297.195312 279.234375 295.402344 281.113281 293.566406 282.953125 C 291.730469 284.789062 289.847656 286.578125 287.921875 288.324219 C 285.996094 290.066406 284.03125 291.765625 282.023438 293.410156 C 280.015625 295.058594 277.96875 296.65625 275.878906 298.203125 C 273.792969 299.75 271.671875 301.246094 269.507812 302.691406 C 267.347656 304.132812 265.15625 305.523438 262.925781 306.859375 C 260.699219 308.195312 258.4375 309.472656 256.148438 310.699219 C 253.855469 311.921875 251.535156 313.089844 249.1875 314.199219 C 246.839844 315.3125 244.464844 316.363281 242.0625 317.359375 C 239.664062 318.351562 237.242188 319.285156 234.792969 320.160156 C 232.347656 321.035156 229.882812 321.851562 227.394531 322.605469 C 224.910156 323.359375 222.40625 324.050781 219.886719 324.683594 C 217.367188 325.3125 214.832031 325.882812 212.285156 326.390625 C 209.734375 326.894531 207.175781 327.339844 204.605469 327.722656 C 202.039062 328.101562 199.460938 328.421875 196.875 328.675781 C 194.289062 328.929688 191.699219 329.121094 189.101562 329.25 C 186.507812 329.375 183.910156 329.4375 181.3125 329.4375 C 178.714844 329.4375 176.121094 329.375 173.523438 329.25 C 170.929688 329.121094 168.339844 328.929688 165.753906 328.675781 C 163.167969 328.421875 160.589844 328.101562 158.019531 327.722656 C 155.449219 327.339844 152.890625 326.894531 150.34375 326.390625 C 147.796875 325.882812 145.261719 325.3125 142.742188 324.683594 C 140.222656 324.050781 137.71875 323.359375 135.230469 322.605469 C 132.746094 321.851562 130.28125 321.035156 127.832031 320.160156 C 125.386719 319.285156 122.964844 318.351562 120.5625 317.359375 C 118.164062 316.363281 115.789062 315.3125 113.441406 314.199219 C 111.089844 313.089844 108.773438 311.921875 106.480469 310.699219 C 104.1875 309.472656 101.929688 308.195312 99.699219 306.859375 C 97.472656 305.523438 95.277344 304.132812 93.117188 302.691406 C 90.957031 301.246094 88.835938 299.75 86.746094 298.203125 C 84.660156 296.65625 82.613281 295.058594 80.605469 293.410156 C 78.597656 291.765625 76.628906 290.066406 74.707031 288.324219 C 72.78125 286.578125 70.898438 284.789062 69.0625 282.953125 C 67.226562 281.113281 65.433594 279.234375 63.6875 277.308594 C 61.945312 275.382812 60.25 273.417969 58.601562 271.410156 C 56.953125 269.402344 55.355469 267.355469 53.804688 265.269531 C 52.257812 263.183594 50.761719 261.058594 49.320312 258.898438 C 47.875 256.738281 46.488281 254.546875 45.152344 252.316406 C 43.816406 250.089844 42.535156 247.832031 41.3125 245.539062 C 40.085938 243.25 38.917969 240.929688 37.808594 238.582031 C 36.695312 236.234375 35.644531 233.859375 34.648438 231.460938 C 33.65625 229.058594 32.722656 226.636719 31.84375 224.191406 C 30.96875 221.746094 30.15625 219.28125 29.402344 216.792969 C 28.648438 214.308594 27.953125 211.804688 27.324219 209.285156 C 26.691406 206.765625 26.121094 204.230469 25.617188 201.683594 C 25.109375 199.136719 24.664062 196.578125 24.285156 194.007812 C 23.902344 191.4375 23.585938 188.863281 23.332031 186.277344 C 23.074219 183.691406 22.882812 181.101562 22.757812 178.507812 C 22.628906 175.914062 22.566406 173.316406 22.566406 170.71875 C 22.566406 168.121094 22.628906 165.527344 22.757812 162.933594 C 22.882812 160.335938 23.074219 157.746094 23.332031 155.164062 C 23.585938 152.578125 23.902344 150 24.285156 147.429688 C 24.664062 144.859375 25.109375 142.300781 25.617188 139.753906 C 26.121094 137.207031 26.691406 134.671875 27.324219 132.152344 C 27.953125 129.632812 28.648438 127.132812 29.402344 124.644531 C 30.15625 122.160156 30.96875 119.695312 31.84375 117.25 C 32.722656 114.804688 33.65625 112.378906 34.648438 109.980469 C 35.644531 107.582031 36.695312 105.207031 37.808594 102.859375 C 38.917969 100.511719 40.085938 98.191406 41.3125 95.898438 C 42.535156 93.609375 43.816406 91.347656 45.152344 89.121094 C 46.488281 86.894531 47.875 84.699219 49.320312 82.539062 C 50.761719 80.378906 52.257812 78.257812 53.804688 76.171875 C 55.355469 74.085938 56.953125 72.035156 58.601562 70.027344 C 60.25 68.019531 61.945312 66.054688 63.6875 64.128906 C 65.433594 62.207031 67.226562 60.324219 69.0625 58.488281 C 70.898438 56.652344 72.78125 54.859375 74.707031 53.117188 C 76.628906 51.371094 78.597656 49.675781 80.605469 48.027344 C 82.613281 46.378906 84.660156 44.78125 86.746094 43.234375 C 88.835938 41.6875 90.957031 40.191406 93.117188 38.75 C 95.277344 37.304688 97.472656 35.917969 99.699219 34.582031 C 101.929688 33.246094 104.1875 31.964844 106.480469 30.742188 C 108.773438 29.515625 111.089844 28.347656 113.441406 27.238281 C 115.789062 26.128906 118.164062 25.074219 120.5625 24.082031 C 122.964844 23.085938 125.386719 22.152344 127.832031 21.277344 C 130.28125 20.402344 132.746094 19.589844 135.230469 18.835938 C 137.71875 18.082031 140.222656 17.386719 142.742188 16.757812 C 145.261719 16.125 147.796875 15.554688 150.34375 15.050781 C 152.890625 14.542969 155.449219 14.097656 158.019531 13.71875 C 160.589844 13.335938 163.167969 13.019531 165.753906 12.765625 C 168.339844 12.507812 170.929688 12.320312 173.523438 12.191406 C 176.121094 12.0625 178.714844 12 181.3125 12 C 183.910156 12 186.507812 12.0625 189.101562 12.191406 C 191.699219 12.320312 194.289062 12.507812 196.875 12.765625 C 199.460938 13.019531 202.039062 13.335938 204.605469 13.71875 C 207.175781 14.097656 209.734375 14.542969 212.285156 15.050781 C 214.832031 15.554688 217.367188 16.125 219.886719 16.757812 C 222.40625 17.386719 224.910156 18.082031 227.394531 18.835938 C 229.882812 19.589844 232.347656 20.402344 234.792969 21.277344 C 237.242188 22.152344 239.664062 23.085938 242.0625 24.082031 C 244.464844 25.074219 246.839844 26.128906 249.1875 27.238281 C 251.535156 28.347656 253.855469 29.515625 256.148438 30.742188 C 258.4375 31.964844 260.699219 33.246094 262.925781 34.582031 C 265.15625 35.917969 267.347656 37.304688 269.507812 38.75 C 271.671875 40.191406 273.792969 41.6875 275.878906 43.234375 C 277.96875 44.78125 280.015625 46.378906 282.023438 48.027344 C 284.03125 49.675781 285.996094 51.371094 287.921875 53.117188 C 289.847656 54.859375 291.730469 56.652344 293.566406 58.488281 C 295.402344 60.324219 297.195312 62.207031 298.9375 64.128906 C 300.683594 66.054688 302.378906 68.019531 304.027344 70.027344 C 305.675781 72.035156 307.273438 74.085938 308.820312 76.171875 C 310.371094 78.257812 311.863281 80.378906 313.308594 82.539062 C 314.75 84.699219 316.140625 86.894531 317.476562 89.121094 C 318.8125 91.347656 320.09375 93.609375 321.316406 95.898438 C 322.542969 98.191406 323.710938 100.511719 324.820312 102.859375 C 325.929688 105.207031 326.984375 107.582031 327.976562 109.980469 C 328.972656 112.378906 329.90625 114.804688 330.78125 117.25 C 331.65625 119.695312 332.472656 122.160156 333.226562 124.644531 C 333.980469 127.132812 334.671875 129.632812 335.304688 132.152344 C 335.9375 134.671875 336.503906 137.207031 337.011719 139.753906 C 337.519531 142.300781 337.960938 144.859375 338.34375 147.429688 C 338.726562 150 339.042969 152.578125 339.296875 155.164062 C 339.550781 157.746094 339.742188 160.335938 339.871094 162.933594 C 340 165.527344 340.0625 168.121094 340.0625 170.71875 Z M 340.0625 170.71875 " clip-rule="nonzero"/></clipPath><linearGradient x1="2748.969001" gradientTransform="matrix(0.0271115, 0, 0, -0.0271066, -50.840933, -49.266719)" y1="-2219.402488" x2="14377.048184" gradientUnits="userSpaceOnUse" y2="-14011.687899" id="4d1e30b291"><stop stop-opacity="1" stop-color="rgb(100%, 79.998779%, 59.999084%)" offset="0"/><stop stop-opacity="1" stop-color="rgb(100%, 79.998779%, 59.999084%)" offset="0.125"/><stop stop-opacity="1" stop-color="rgb(100%, 79.998779%, 59.999084%)" offset="0.140625"/><stop stop-opacity="1" stop-color="rgb(100%, 79.998779%, 59.999084%)" offset="0.148438"/><stop stop-opacity="1" stop-color="rgb(100%, 79.864502%, 59.73053%)" offset="0.152344"/><stop stop-opacity="1" stop-color="rgb(100%, 79.730225%, 59.461975%)" offset="0.15625"/><stop stop-opacity="1" stop-color="rgb(100%, 79.595947%, 59.19342%)" offset="0.160156"/><stop stop-opacity="1" stop-color="rgb(100%, 79.46167%, 58.924866%)" offset="0.164062"/><stop stop-opacity="1" stop-color="rgb(100%, 79.327393%, 58.656311%)" offset="0.167969"/><stop stop-opacity="1" stop-color="rgb(100%, 79.193115%, 58.387756%)" offset="0.171875"/><stop stop-opacity="1" stop-color="rgb(100%, 79.058838%, 58.119202%)" offset="0.175781"/><stop stop-opacity="1" stop-color="rgb(100%, 78.924561%, 57.850647%)" offset="0.179688"/><stop stop-opacity="1" stop-color="rgb(100%, 78.790283%, 57.582092%)" offset="0.183594"/><stop stop-opacity="1" stop-color="rgb(100%, 78.656006%, 57.313538%)" offset="0.1875"/><stop stop-opacity="1" stop-color="rgb(100%, 78.521729%, 57.044983%)" offset="0.191406"/><stop stop-opacity="1" stop-color="rgb(100%, 78.387451%, 56.776428%)" offset="0.195312"/><stop stop-opacity="1" stop-color="rgb(100%, 78.253174%, 56.507874%)" offset="0.199219"/><stop stop-opacity="1" stop-color="rgb(100%, 78.118896%, 56.239319%)" offset="0.203125"/><stop stop-opacity="1" stop-color="rgb(100%, 77.984619%, 55.970764%)" offset="0.207031"/><stop stop-opacity="1" stop-color="rgb(100%, 77.850342%, 55.702209%)" offset="0.210938"/><stop stop-opacity="1" stop-color="rgb(100%, 77.716064%, 55.433655%)" offset="0.214844"/><stop stop-opacity="1" stop-color="rgb(100%, 77.583313%, 55.166626%)" offset="0.21875"/><stop stop-opacity="1" stop-color="rgb(100%, 77.449036%, 54.898071%)" offset="0.222656"/><stop stop-opacity="1" stop-color="rgb(100%, 77.314758%, 54.629517%)" offset="0.226562"/><stop stop-opacity="1" stop-color="rgb(100%, 77.180481%, 54.360962%)" offset="0.230469"/><stop stop-opacity="1" stop-color="rgb(100%, 77.046204%, 54.092407%)" offset="0.234375"/><stop stop-opacity="1" stop-color="rgb(100%, 76.911926%, 53.823853%)" offset="0.238281"/><stop stop-opacity="1" stop-color="rgb(100%, 76.777649%, 53.555298%)" offset="0.242188"/><stop stop-opacity="1" stop-color="rgb(100%, 76.643372%, 53.286743%)" offset="0.246094"/><stop stop-opacity="1" stop-color="rgb(100%, 76.509094%, 53.018188%)" offset="0.25"/><stop stop-opacity="1" stop-color="rgb(100%, 76.374817%, 52.749634%)" offset="0.253906"/><stop stop-opacity="1" stop-color="rgb(100%, 76.24054%, 52.481079%)" offset="0.257812"/><stop stop-opacity="1" stop-color="rgb(100%, 76.106262%, 52.212524%)" offset="0.261719"/><stop stop-opacity="1" stop-color="rgb(100%, 75.971985%, 51.94397%)" offset="0.265625"/><stop stop-opacity="1" stop-color="rgb(100%, 75.837708%, 51.675415%)" offset="0.269531"/><stop stop-opacity="1" stop-color="rgb(100%, 75.70343%, 51.40686%)" offset="0.273438"/><stop stop-opacity="1" stop-color="rgb(100%, 75.569153%, 51.138306%)" offset="0.277344"/><stop stop-opacity="1" stop-color="rgb(100%, 75.434875%, 50.871277%)" offset="0.28125"/><stop stop-opacity="1" stop-color="rgb(100%, 75.300598%, 50.602722%)" offset="0.285156"/><stop stop-opacity="1" stop-color="rgb(100%, 75.166321%, 50.334167%)" offset="0.289062"/><stop stop-opacity="1" stop-color="rgb(100%, 75.032043%, 50.065613%)" offset="0.292969"/><stop stop-opacity="1" stop-color="rgb(100%, 74.897766%, 49.797058%)" offset="0.296875"/><stop stop-opacity="1" stop-color="rgb(100%, 74.763489%, 49.528503%)" offset="0.300781"/><stop stop-opacity="1" stop-color="rgb(100%, 74.629211%, 49.259949%)" offset="0.304687"/><stop stop-opacity="1" stop-color="rgb(100%, 74.494934%, 48.991394%)" offset="0.308594"/><stop stop-opacity="1" stop-color="rgb(100%, 74.360657%, 48.722839%)" offset="0.3125"/><stop stop-opacity="1" stop-color="rgb(100%, 74.226379%, 48.454285%)" offset="0.316406"/><stop stop-opacity="1" stop-color="rgb(100%, 74.092102%, 48.18573%)" offset="0.320312"/><stop stop-opacity="1" stop-color="rgb(100%, 73.957825%, 47.917175%)" offset="0.324219"/><stop stop-opacity="1" stop-color="rgb(100%, 73.823547%, 47.648621%)" offset="0.328125"/><stop stop-opacity="1" stop-color="rgb(100%, 73.68927%, 47.380066%)" offset="0.332031"/><stop stop-opacity="1" stop-color="rgb(100%, 73.554993%, 47.111511%)" offset="0.335938"/><stop stop-opacity="1" stop-color="rgb(100%, 73.420715%, 46.842957%)" offset="0.339844"/><stop stop-opacity="1" stop-color="rgb(100%, 73.286438%, 46.574402%)" offset="0.34375"/><stop stop-opacity="1" stop-color="rgb(100%, 73.152161%, 46.305847%)" offset="0.347656"/><stop stop-opacity="1" stop-color="rgb(100%, 73.019409%, 46.038818%)" offset="0.351562"/><stop stop-opacity="1" stop-color="rgb(100%, 72.885132%, 45.770264%)" offset="0.355469"/><stop stop-opacity="1" stop-color="rgb(100%, 72.750854%, 45.501709%)" offset="0.359375"/><stop stop-opacity="1" stop-color="rgb(100%, 72.616577%, 45.233154%)" offset="0.363281"/><stop stop-opacity="1" stop-color="rgb(100%, 72.4823%, 44.9646%)" offset="0.367188"/><stop stop-opacity="1" stop-color="rgb(100%, 72.348022%, 44.696045%)" offset="0.371094"/><stop stop-opacity="1" stop-color="rgb(100%, 72.213745%, 44.42749%)" offset="0.375"/><stop stop-opacity="1" stop-color="rgb(100%, 72.079468%, 44.158936%)" offset="0.378906"/><stop stop-opacity="1" stop-color="rgb(100%, 71.94519%, 43.890381%)" offset="0.382813"/><stop stop-opacity="1" stop-color="rgb(100%, 71.810913%, 43.621826%)" offset="0.386719"/><stop stop-opacity="1" stop-color="rgb(100%, 71.676636%, 43.353271%)" offset="0.390625"/><stop stop-opacity="1" stop-color="rgb(100%, 71.542358%, 43.084717%)" offset="0.394531"/><stop stop-opacity="1" stop-color="rgb(100%, 71.408081%, 42.816162%)" offset="0.398438"/><stop stop-opacity="1" stop-color="rgb(100%, 71.273804%, 42.547607%)" offset="0.402344"/><stop stop-opacity="1" stop-color="rgb(100%, 71.139526%, 42.279053%)" offset="0.40625"/><stop stop-opacity="1" stop-color="rgb(100%, 71.005249%, 42.010498%)" offset="0.410156"/><stop stop-opacity="1" stop-color="rgb(100%, 70.870972%, 41.741943%)" offset="0.414062"/><stop stop-opacity="1" stop-color="rgb(100%, 70.736694%, 41.473389%)" offset="0.417969"/><stop stop-opacity="1" stop-color="rgb(100%, 70.602417%, 41.20636%)" offset="0.421875"/><stop stop-opacity="1" stop-color="rgb(100%, 70.46814%, 40.937805%)" offset="0.425781"/><stop stop-opacity="1" stop-color="rgb(100%, 70.333862%, 40.66925%)" offset="0.429688"/><stop stop-opacity="1" stop-color="rgb(100%, 70.199585%, 40.400696%)" offset="0.433594"/><stop stop-opacity="1" stop-color="rgb(100%, 70.065308%, 40.132141%)" offset="0.4375"/><stop stop-opacity="1" stop-color="rgb(100%, 69.93103%, 39.863586%)" offset="0.441406"/><stop stop-opacity="1" stop-color="rgb(100%, 69.796753%, 39.595032%)" offset="0.445312"/><stop stop-opacity="1" stop-color="rgb(100%, 69.662476%, 39.326477%)" offset="0.449219"/><stop stop-opacity="1" stop-color="rgb(100%, 69.528198%, 39.057922%)" offset="0.453125"/><stop stop-opacity="1" stop-color="rgb(100%, 69.393921%, 38.789368%)" offset="0.457031"/><stop stop-opacity="1" stop-color="rgb(100%, 69.259644%, 38.520813%)" offset="0.460938"/><stop stop-opacity="1" stop-color="rgb(100%, 69.125366%, 38.252258%)" offset="0.464844"/><stop stop-opacity="1" stop-color="rgb(100%, 68.991089%, 37.983704%)" offset="0.46875"/><stop stop-opacity="1" stop-color="rgb(100%, 68.856812%, 37.715149%)" offset="0.472656"/><stop stop-opacity="1" stop-color="rgb(100%, 68.722534%, 37.446594%)" offset="0.476563"/><stop stop-opacity="1" stop-color="rgb(100%, 68.588257%, 37.17804%)" offset="0.480469"/><stop stop-opacity="1" stop-color="rgb(100%, 68.453979%, 36.909485%)" offset="0.484375"/><stop stop-opacity="1" stop-color="rgb(100%, 68.319702%, 36.64093%)" offset="0.488281"/><stop stop-opacity="1" stop-color="rgb(100%, 68.186951%, 36.373901%)" offset="0.492188"/><stop stop-opacity="1" stop-color="rgb(100%, 68.052673%, 36.105347%)" offset="0.496094"/><stop stop-opacity="1" stop-color="rgb(100%, 67.918396%, 35.836792%)" offset="0.5"/><stop stop-opacity="1" stop-color="rgb(100%, 67.784119%, 35.568237%)" offset="0.503906"/><stop stop-opacity="1" stop-color="rgb(100%, 67.649841%, 35.299683%)" offset="0.507812"/><stop stop-opacity="1" stop-color="rgb(100%, 67.515564%, 35.031128%)" offset="0.511719"/><stop stop-opacity="1" stop-color="rgb(100%, 67.381287%, 34.762573%)" offset="0.515625"/><stop stop-opacity="1" stop-color="rgb(100%, 67.247009%, 34.494019%)" offset="0.519531"/><stop stop-opacity="1" stop-color="rgb(100%, 67.112732%, 34.225464%)" offset="0.523438"/><stop stop-opacity="1" stop-color="rgb(100%, 66.978455%, 33.956909%)" offset="0.527344"/><stop stop-opacity="1" stop-color="rgb(100%, 66.844177%, 33.688354%)" offset="0.53125"/><stop stop-opacity="1" stop-color="rgb(100%, 66.7099%, 33.4198%)" offset="0.535156"/><stop stop-opacity="1" stop-color="rgb(100%, 66.575623%, 33.151245%)" offset="0.539062"/><stop stop-opacity="1" stop-color="rgb(100%, 66.441345%, 32.88269%)" offset="0.542969"/><stop stop-opacity="1" stop-color="rgb(100%, 66.307068%, 32.614136%)" offset="0.546875"/><stop stop-opacity="1" stop-color="rgb(100%, 66.172791%, 32.345581%)" offset="0.550781"/><stop stop-opacity="1" stop-color="rgb(100%, 66.038513%, 32.077026%)" offset="0.554688"/><stop stop-opacity="1" stop-color="rgb(100%, 65.904236%, 31.808472%)" offset="0.558594"/><stop stop-opacity="1" stop-color="rgb(100%, 65.769958%, 31.541443%)" offset="0.5625"/><stop stop-opacity="1" stop-color="rgb(100%, 65.635681%, 31.272888%)" offset="0.566406"/><stop stop-opacity="1" stop-color="rgb(100%, 65.501404%, 31.004333%)" offset="0.570312"/><stop stop-opacity="1" stop-color="rgb(100%, 65.367126%, 30.735779%)" offset="0.574219"/><stop stop-opacity="1" stop-color="rgb(100%, 65.232849%, 30.467224%)" offset="0.578125"/><stop stop-opacity="1" stop-color="rgb(100%, 65.098572%, 30.198669%)" offset="0.582031"/><stop stop-opacity="1" stop-color="rgb(100%, 64.964294%, 29.930115%)" offset="0.585938"/><stop stop-opacity="1" stop-color="rgb(100%, 64.830017%, 29.66156%)" offset="0.589844"/><stop stop-opacity="1" stop-color="rgb(100%, 64.69574%, 29.393005%)" offset="0.59375"/><stop stop-opacity="1" stop-color="rgb(100%, 64.561462%, 29.124451%)" offset="0.597656"/><stop stop-opacity="1" stop-color="rgb(100%, 64.427185%, 28.855896%)" offset="0.601562"/><stop stop-opacity="1" stop-color="rgb(100%, 64.292908%, 28.587341%)" offset="0.605469"/><stop stop-opacity="1" stop-color="rgb(100%, 64.15863%, 28.318787%)" offset="0.609375"/><stop stop-opacity="1" stop-color="rgb(100%, 64.024353%, 28.050232%)" offset="0.613281"/><stop stop-opacity="1" stop-color="rgb(100%, 63.890076%, 27.781677%)" offset="0.617187"/><stop stop-opacity="1" stop-color="rgb(100%, 63.755798%, 27.513123%)" offset="0.621094"/><stop stop-opacity="1" stop-color="rgb(100%, 63.623047%, 27.246094%)" offset="0.625"/><stop stop-opacity="1" stop-color="rgb(100%, 63.48877%, 26.977539%)" offset="0.628906"/><stop stop-opacity="1" stop-color="rgb(100%, 63.354492%, 26.708984%)" offset="0.632812"/><stop stop-opacity="1" stop-color="rgb(100%, 63.220215%, 26.44043%)" offset="0.636719"/><stop stop-opacity="1" stop-color="rgb(100%, 63.085938%, 26.171875%)" offset="0.640625"/><stop stop-opacity="1" stop-color="rgb(100%, 62.95166%, 25.90332%)" offset="0.644531"/><stop stop-opacity="1" stop-color="rgb(100%, 62.817383%, 25.634766%)" offset="0.648438"/><stop stop-opacity="1" stop-color="rgb(100%, 62.683105%, 25.366211%)" offset="0.652344"/><stop stop-opacity="1" stop-color="rgb(100%, 62.548828%, 25.097656%)" offset="0.65625"/><stop stop-opacity="1" stop-color="rgb(100%, 62.414551%, 24.829102%)" offset="0.660156"/><stop stop-opacity="1" stop-color="rgb(100%, 62.280273%, 24.560547%)" offset="0.664062"/><stop stop-opacity="1" stop-color="rgb(100%, 62.145996%, 24.291992%)" offset="0.667969"/><stop stop-opacity="1" stop-color="rgb(100%, 62.011719%, 24.023438%)" offset="0.671875"/><stop stop-opacity="1" stop-color="rgb(100%, 61.877441%, 23.754883%)" offset="0.675781"/><stop stop-opacity="1" stop-color="rgb(100%, 61.743164%, 23.486328%)" offset="0.679688"/><stop stop-opacity="1" stop-color="rgb(100%, 61.608887%, 23.217773%)" offset="0.683594"/><stop stop-opacity="1" stop-color="rgb(100%, 61.474609%, 22.949219%)" offset="0.6875"/><stop stop-opacity="1" stop-color="rgb(100%, 61.340332%, 22.680664%)" offset="0.691406"/><stop stop-opacity="1" stop-color="rgb(100%, 61.206055%, 22.413635%)" offset="0.695312"/><stop stop-opacity="1" stop-color="rgb(100%, 61.071777%, 22.145081%)" offset="0.699219"/><stop stop-opacity="1" stop-color="rgb(100%, 60.9375%, 21.876526%)" offset="0.703125"/><stop stop-opacity="1" stop-color="rgb(100%, 60.803223%, 21.607971%)" offset="0.707031"/><stop stop-opacity="1" stop-color="rgb(100%, 60.668945%, 21.339417%)" offset="0.710937"/><stop stop-opacity="1" stop-color="rgb(100%, 60.534668%, 21.070862%)" offset="0.714844"/><stop stop-opacity="1" stop-color="rgb(100%, 60.400391%, 20.802307%)" offset="0.71875"/><stop stop-opacity="1" stop-color="rgb(100%, 60.266113%, 20.533752%)" offset="0.722656"/><stop stop-opacity="1" stop-color="rgb(100%, 60.131836%, 20.265198%)" offset="0.726562"/><stop stop-opacity="1" stop-color="rgb(100%, 60.064697%, 20.132446%)" offset="0.734375"/><stop stop-opacity="1" stop-color="rgb(100%, 59.999084%, 19.999695%)" offset="0.75"/><stop stop-opacity="1" stop-color="rgb(100%, 59.999084%, 19.999695%)" offset="1"/></linearGradient><clipPath id="5857673308"><path d="M 22.53125 82 L 341 82 L 341 330 L 22.53125 330 Z M 22.53125 82 " clip-rule="nonzero"/></clipPath><clipPath id="c4fe9039d8"><path d="M 22.53125 106 L 340 106 L 340 330 L 22.53125 330 Z M 22.53125 106 " clip-rule="nonzero"/></clipPath><clipPath id="b4a43b21ba"><path d="M 22.53125 139 L 323 139 L 323 330 L 22.53125 330 Z M 22.53125 139 " clip-rule="nonzero"/></clipPath><clipPath id="445cdeb0e8"><path d="M 43 169 L 329 169 L 329 330 L 43 330 Z M 43 169 " clip-rule="nonzero"/></clipPath><clipPath id="0e615d5268"><path d="M 221.863281 208.007812 C 221.863281 208.007812 222.246094 187.453125 214.019531 186.210938 C 205.796875 184.964844 207.039062 173.398438 193.839844 170.433594 C 180.644531 167.46875 157.023438 168.617188 152.433594 184.390625 C 147.84375 200.167969 140.480469 198.160156 133.59375 206.574219 C 126.707031 214.988281 129.003906 234.398438 135.601562 238.414062 C 142.199219 242.429688 153.199219 256.007812 153.773438 265.855469 C 154.347656 275.703125 162.1875 279.050781 164.960938 281.824219 C 167.734375 284.597656 165.152344 295.019531 151.957031 291.003906 C 138.757812 286.988281 139.714844 277.808594 126.707031 278.574219 C 113.703125 279.335938 100.121094 282.972656 96.105469 272.738281 C 92.089844 262.507812 81.476562 265.953125 72.867188 264.136719 C 64.261719 262.316406 62.828125 252.566406 58.140625 249.792969 C 53.453125 247.117188 48.003906 244.054688 43.796875 250.078125 C 71.433594 297.601562 122.597656 329.4375 181.3125 329.4375 C 224.445312 329.4375 263.460938 312.230469 292.054688 284.40625 C 291.769531 284.308594 283.734375 280.867188 268.816406 290.238281 C 253.613281 299.800781 253.421875 283.449219 243.378906 284.40625 C 233.335938 285.359375 227.027344 286.988281 224.347656 280.964844 C 221.765625 274.9375 203.789062 287.941406 198.527344 284.117188 C 193.363281 280.292969 198.71875 269.96875 210.480469 270.921875 C 222.246094 271.878906 226.261719 261.9375 233.527344 259.738281 C 240.699219 257.539062 246.34375 258.78125 251.890625 260.5 C 257.53125 262.316406 274.269531 261.074219 278.285156 252.46875 C 282.300781 243.863281 288.324219 243.289062 296.261719 240.710938 C 304.296875 238.128906 309.652344 213.746094 302.671875 204.757812 C 295.6875 195.769531 296.070312 184.390625 291.671875 178.367188 C 287.273438 172.34375 278.667969 169.953125 269.484375 174.925781 C 260.304688 179.898438 262.503906 174.351562 253.324219 171.960938 C 244.144531 169.574219 238.308594 179.324219 239.363281 184.203125 C 240.320312 188.980469 242.996094 196.824219 238.789062 199.59375 C 234.582031 202.464844 227.410156 200.457031 221.863281 208.007812 Z M 327.4375 188.027344 C 327.4375 188.027344 320.074219 175.023438 310.035156 175.40625 C 299.992188 175.789062 306.398438 189.363281 309.652344 194.433594 C 312.808594 199.402344 304.488281 203.230469 311.851562 208.871094 C 319.214844 214.511719 321.605469 201.316406 324.855469 199.691406 C 328.011719 198.066406 329.636719 193.09375 327.4375 188.027344 Z M 327.4375 188.027344 " clip-rule="evenodd"/></clipPath><linearGradient x1="3490.651564" gradientTransform="matrix(0.0271115, 0, 0, -0.0271066, -50.840933, -49.266719)" y1="-11015.5928" x2="14033.862325" gradientUnits="userSpaceOnUse" y2="-11015.5928" id="b3b60de747"><stop stop-opacity="1" stop-color="rgb(100%, 79.998779%, 59.999084%)" offset="0"/><stop stop-opacity="1" stop-color="rgb(100%, 79.925537%, 59.851074%)" offset="0.0078125"/><stop stop-opacity="1" stop-color="rgb(100%, 79.772949%, 59.547424%)" offset="0.015625"/><stop stop-opacity="1" stop-color="rgb(100%, 79.615784%, 59.234619%)" offset="0.0234375"/><stop stop-opacity="1" stop-color="rgb(100%, 79.458618%, 58.920288%)" offset="0.03125"/><stop stop-opacity="1" stop-color="rgb(100%, 79.301453%, 58.605957%)" offset="0.0390625"/><stop stop-opacity="1" stop-color="rgb(100%, 79.145813%, 58.291626%)" offset="0.046875"/><stop stop-opacity="1" stop-color="rgb(100%, 78.988647%, 57.978821%)" offset="0.0546875"/><stop stop-opacity="1" stop-color="rgb(100%, 78.831482%, 57.66449%)" offset="0.0625"/><stop stop-opacity="1" stop-color="rgb(100%, 78.674316%, 57.350159%)" offset="0.0703125"/><stop stop-opacity="1" stop-color="rgb(100%, 78.517151%, 57.037354%)" offset="0.078125"/><stop stop-opacity="1" stop-color="rgb(100%, 78.359985%, 56.723022%)" offset="0.0859375"/><stop stop-opacity="1" stop-color="rgb(100%, 78.20282%, 56.408691%)" offset="0.09375"/><stop stop-opacity="1" stop-color="rgb(100%, 78.04718%, 56.09436%)" offset="0.101562"/><stop stop-opacity="1" stop-color="rgb(100%, 77.890015%, 55.781555%)" offset="0.109375"/><stop stop-opacity="1" stop-color="rgb(100%, 77.732849%, 55.467224%)" offset="0.117187"/><stop stop-opacity="1" stop-color="rgb(100%, 77.575684%, 55.152893%)" offset="0.125"/><stop stop-opacity="1" stop-color="rgb(100%, 77.418518%, 54.838562%)" offset="0.132812"/><stop stop-opacity="1" stop-color="rgb(100%, 77.261353%, 54.525757%)" offset="0.140625"/><stop stop-opacity="1" stop-color="rgb(100%, 77.104187%, 54.211426%)" offset="0.148438"/><stop stop-opacity="1" stop-color="rgb(100%, 76.948547%, 53.897095%)" offset="0.15625"/><stop stop-opacity="1" stop-color="rgb(100%, 76.791382%, 53.58429%)" offset="0.164062"/><stop stop-opacity="1" stop-color="rgb(100%, 76.634216%, 53.269958%)" offset="0.171875"/><stop stop-opacity="1" stop-color="rgb(100%, 76.477051%, 52.955627%)" offset="0.179688"/><stop stop-opacity="1" stop-color="rgb(100%, 76.319885%, 52.641296%)" offset="0.1875"/><stop stop-opacity="1" stop-color="rgb(100%, 76.16272%, 52.328491%)" offset="0.195312"/><stop stop-opacity="1" stop-color="rgb(100%, 76.005554%, 52.01416%)" offset="0.203125"/><stop stop-opacity="1" stop-color="rgb(100%, 75.848389%, 51.699829%)" offset="0.210937"/><stop stop-opacity="1" stop-color="rgb(100%, 75.692749%, 51.385498%)" offset="0.21875"/><stop stop-opacity="1" stop-color="rgb(100%, 75.535583%, 51.072693%)" offset="0.226562"/><stop stop-opacity="1" stop-color="rgb(100%, 75.378418%, 50.758362%)" offset="0.234375"/><stop stop-opacity="1" stop-color="rgb(100%, 75.221252%, 50.444031%)" offset="0.242188"/><stop stop-opacity="1" stop-color="rgb(100%, 75.064087%, 50.131226%)" offset="0.25"/><stop stop-opacity="1" stop-color="rgb(100%, 74.906921%, 49.816895%)" offset="0.257813"/><stop stop-opacity="1" stop-color="rgb(100%, 74.749756%, 49.502563%)" offset="0.265625"/><stop stop-opacity="1" stop-color="rgb(100%, 74.594116%, 49.188232%)" offset="0.273438"/><stop stop-opacity="1" stop-color="rgb(100%, 74.436951%, 48.875427%)" offset="0.28125"/><stop stop-opacity="1" stop-color="rgb(100%, 74.279785%, 48.561096%)" offset="0.289062"/><stop stop-opacity="1" stop-color="rgb(100%, 74.12262%, 48.246765%)" offset="0.296875"/><stop stop-opacity="1" stop-color="rgb(100%, 73.965454%, 47.932434%)" offset="0.304688"/><stop stop-opacity="1" stop-color="rgb(100%, 73.808289%, 47.619629%)" offset="0.3125"/><stop stop-opacity="1" stop-color="rgb(100%, 73.651123%, 47.305298%)" offset="0.320312"/><stop stop-opacity="1" stop-color="rgb(100%, 73.495483%, 46.990967%)" offset="0.328125"/><stop stop-opacity="1" stop-color="rgb(100%, 73.338318%, 46.678162%)" offset="0.335937"/><stop stop-opacity="1" stop-color="rgb(100%, 73.181152%, 46.363831%)" offset="0.34375"/><stop stop-opacity="1" stop-color="rgb(100%, 73.023987%, 46.0495%)" offset="0.351563"/><stop stop-opacity="1" stop-color="rgb(100%, 72.866821%, 45.735168%)" offset="0.359375"/><stop stop-opacity="1" stop-color="rgb(100%, 72.709656%, 45.422363%)" offset="0.367188"/><stop stop-opacity="1" stop-color="rgb(100%, 72.55249%, 45.108032%)" offset="0.375"/><stop stop-opacity="1" stop-color="rgb(100%, 72.396851%, 44.793701%)" offset="0.382812"/><stop stop-opacity="1" stop-color="rgb(100%, 72.239685%, 44.480896%)" offset="0.390625"/><stop stop-opacity="1" stop-color="rgb(100%, 72.08252%, 44.166565%)" offset="0.398438"/><stop stop-opacity="1" stop-color="rgb(100%, 71.925354%, 43.852234%)" offset="0.40625"/><stop stop-opacity="1" stop-color="rgb(100%, 71.768188%, 43.537903%)" offset="0.414062"/><stop stop-opacity="1" stop-color="rgb(100%, 71.611023%, 43.225098%)" offset="0.421875"/><stop stop-opacity="1" stop-color="rgb(100%, 71.453857%, 42.910767%)" offset="0.429687"/><stop stop-opacity="1" stop-color="rgb(100%, 71.296692%, 42.596436%)" offset="0.4375"/><stop stop-opacity="1" stop-color="rgb(100%, 71.141052%, 42.282104%)" offset="0.445312"/><stop stop-opacity="1" stop-color="rgb(100%, 70.983887%, 41.969299%)" offset="0.453125"/><stop stop-opacity="1" stop-color="rgb(100%, 70.826721%, 41.654968%)" offset="0.460938"/><stop stop-opacity="1" stop-color="rgb(100%, 70.669556%, 41.340637%)" offset="0.46875"/><stop stop-opacity="1" stop-color="rgb(100%, 70.51239%, 41.027832%)" offset="0.476562"/><stop stop-opacity="1" stop-color="rgb(100%, 70.355225%, 40.713501%)" offset="0.484375"/><stop stop-opacity="1" stop-color="rgb(100%, 70.198059%, 40.39917%)" offset="0.492188"/><stop stop-opacity="1" stop-color="rgb(100%, 70.042419%, 40.084839%)" offset="0.5"/><stop stop-opacity="1" stop-color="rgb(100%, 69.885254%, 39.772034%)" offset="0.507812"/><stop stop-opacity="1" stop-color="rgb(100%, 69.728088%, 39.457703%)" offset="0.515625"/><stop stop-opacity="1" stop-color="rgb(100%, 69.570923%, 39.143372%)" offset="0.523438"/><stop stop-opacity="1" stop-color="rgb(100%, 69.413757%, 38.829041%)" offset="0.53125"/><stop stop-opacity="1" stop-color="rgb(100%, 69.256592%, 38.516235%)" offset="0.539062"/><stop stop-opacity="1" stop-color="rgb(100%, 69.099426%, 38.201904%)" offset="0.546875"/><stop stop-opacity="1" stop-color="rgb(100%, 68.943787%, 37.887573%)" offset="0.554688"/><stop stop-opacity="1" stop-color="rgb(100%, 68.786621%, 37.574768%)" offset="0.5625"/><stop stop-opacity="1" stop-color="rgb(100%, 68.629456%, 37.260437%)" offset="0.570312"/><stop stop-opacity="1" stop-color="rgb(100%, 68.47229%, 36.946106%)" offset="0.578125"/><stop stop-opacity="1" stop-color="rgb(100%, 68.315125%, 36.631775%)" offset="0.585938"/><stop stop-opacity="1" stop-color="rgb(100%, 68.157959%, 36.31897%)" offset="0.59375"/><stop stop-opacity="1" stop-color="rgb(100%, 68.000793%, 36.004639%)" offset="0.601562"/><stop stop-opacity="1" stop-color="rgb(100%, 67.843628%, 35.690308%)" offset="0.609375"/><stop stop-opacity="1" stop-color="rgb(100%, 67.687988%, 35.375977%)" offset="0.617188"/><stop stop-opacity="1" stop-color="rgb(100%, 67.530823%, 35.063171%)" offset="0.625"/><stop stop-opacity="1" stop-color="rgb(100%, 67.373657%, 34.74884%)" offset="0.632812"/><stop stop-opacity="1" stop-color="rgb(100%, 67.216492%, 34.434509%)" offset="0.640625"/><stop stop-opacity="1" stop-color="rgb(100%, 67.059326%, 34.121704%)" offset="0.648438"/><stop stop-opacity="1" stop-color="rgb(100%, 66.902161%, 33.807373%)" offset="0.65625"/><stop stop-opacity="1" stop-color="rgb(100%, 66.744995%, 33.493042%)" offset="0.664062"/><stop stop-opacity="1" stop-color="rgb(100%, 66.589355%, 33.178711%)" offset="0.671875"/><stop stop-opacity="1" stop-color="rgb(100%, 66.43219%, 32.865906%)" offset="0.679688"/><stop stop-opacity="1" stop-color="rgb(100%, 66.275024%, 32.551575%)" offset="0.6875"/><stop stop-opacity="1" stop-color="rgb(100%, 66.117859%, 32.237244%)" offset="0.695312"/><stop stop-opacity="1" stop-color="rgb(100%, 65.960693%, 31.922913%)" offset="0.703125"/><stop stop-opacity="1" stop-color="rgb(100%, 65.803528%, 31.610107%)" offset="0.710938"/><stop stop-opacity="1" stop-color="rgb(100%, 65.646362%, 31.295776%)" offset="0.71875"/><stop stop-opacity="1" stop-color="rgb(100%, 65.490723%, 30.981445%)" offset="0.726562"/><stop stop-opacity="1" stop-color="rgb(100%, 65.333557%, 30.66864%)" offset="0.734375"/><stop stop-opacity="1" stop-color="rgb(100%, 65.176392%, 30.354309%)" offset="0.742188"/><stop stop-opacity="1" stop-color="rgb(100%, 65.019226%, 30.039978%)" offset="0.75"/><stop stop-opacity="1" stop-color="rgb(100%, 64.862061%, 29.725647%)" offset="0.757812"/><stop stop-opacity="1" stop-color="rgb(100%, 64.704895%, 29.412842%)" offset="0.765625"/><stop stop-opacity="1" stop-color="rgb(100%, 64.547729%, 29.098511%)" offset="0.773438"/><stop stop-opacity="1" stop-color="rgb(100%, 64.390564%, 28.78418%)" offset="0.78125"/><stop stop-opacity="1" stop-color="rgb(100%, 64.234924%, 28.469849%)" offset="0.789062"/><stop stop-opacity="1" stop-color="rgb(100%, 64.077759%, 28.157043%)" offset="0.796875"/><stop stop-opacity="1" stop-color="rgb(100%, 63.920593%, 27.842712%)" offset="0.804688"/><stop stop-opacity="1" stop-color="rgb(100%, 63.763428%, 27.528381%)" offset="0.8125"/><stop stop-opacity="1" stop-color="rgb(100%, 63.606262%, 27.215576%)" offset="0.820312"/><stop stop-opacity="1" stop-color="rgb(100%, 63.449097%, 26.901245%)" offset="0.828125"/><stop stop-opacity="1" stop-color="rgb(100%, 63.291931%, 26.586914%)" offset="0.835938"/><stop stop-opacity="1" stop-color="rgb(100%, 63.136292%, 26.272583%)" offset="0.84375"/><stop stop-opacity="1" stop-color="rgb(100%, 62.979126%, 25.959778%)" offset="0.851562"/><stop stop-opacity="1" stop-color="rgb(100%, 62.82196%, 25.645447%)" offset="0.859375"/><stop stop-opacity="1" stop-color="rgb(100%, 62.664795%, 25.331116%)" offset="0.867188"/><stop stop-opacity="1" stop-color="rgb(100%, 62.507629%, 25.016785%)" offset="0.875"/><stop stop-opacity="1" stop-color="rgb(100%, 62.350464%, 24.703979%)" offset="0.882812"/><stop stop-opacity="1" stop-color="rgb(100%, 62.193298%, 24.389648%)" offset="0.890625"/><stop stop-opacity="1" stop-color="rgb(100%, 62.037659%, 24.075317%)" offset="0.898438"/><stop stop-opacity="1" stop-color="rgb(100%, 61.880493%, 23.762512%)" offset="0.90625"/><stop stop-opacity="1" stop-color="rgb(100%, 61.723328%, 23.448181%)" offset="0.914062"/><stop stop-opacity="1" stop-color="rgb(100%, 61.566162%, 23.13385%)" offset="0.921875"/><stop stop-opacity="1" stop-color="rgb(100%, 61.408997%, 22.819519%)" offset="0.929688"/><stop stop-opacity="1" stop-color="rgb(100%, 61.251831%, 22.506714%)" offset="0.9375"/><stop stop-opacity="1" stop-color="rgb(100%, 61.094666%, 22.192383%)" offset="0.945312"/><stop stop-opacity="1" stop-color="rgb(100%, 60.9375%, 21.878052%)" offset="0.953125"/><stop stop-opacity="1" stop-color="rgb(100%, 60.78186%, 21.563721%)" offset="0.960938"/><stop stop-opacity="1" stop-color="rgb(100%, 60.624695%, 21.250916%)" offset="0.96875"/><stop stop-opacity="1" stop-color="rgb(100%, 60.467529%, 20.936584%)" offset="0.976562"/><stop stop-opacity="1" stop-color="rgb(100%, 60.310364%, 20.622253%)" offset="0.984375"/><stop stop-opacity="1" stop-color="rgb(100%, 60.153198%, 20.309448%)" offset="0.992188"/><stop stop-opacity="1" stop-color="rgb(100%, 60.037231%, 20.075989%)" offset="1"/></linearGradient></defs><g clip-path="url(#77985377ee)"><g clip-path="url(#85a21133b0)"><path fill="url(#4d1e30b291)" d="M 22.566406 329.4375 L 22.566406 12 L 340.0625 12 L 340.0625 329.4375 Z M 22.566406 329.4375 " fill-rule="nonzero"/></g></g><path fill="#ffcc99" d="M 87.785156 42.5 C 94.671875 44.699219 104.425781 49.289062 111.695312 57.226562 C 123.265625 70.039062 145.261719 42.023438 168.117188 48.046875 C 190.972656 54.070312 187.339844 58.851562 200.917969 50.820312 C 214.5 42.789062 222.148438 46.421875 229.320312 50.4375 C 236.492188 54.453125 252.941406 46.804688 264.894531 57.992188 C 273.789062 66.308594 288.707031 62.960938 295.785156 60.667969 C 266.808594 30.644531 226.261719 12 181.3125 12 C 146.3125 12 113.988281 23.28125 87.785156 42.5 Z M 87.785156 42.5 " fill-opacity="1" fill-rule="evenodd"/><g clip-path="url(#5857673308)"><path fill="#e46432" d="M 49.246094 82.660156 C 59.671875 84.1875 74.015625 88.203125 81.664062 98.433594 C 94.480469 115.644531 130.4375 96.425781 145.261719 100.0625 C 160.082031 103.695312 160.847656 116.890625 184.46875 118.417969 C 208.089844 120.042969 220.425781 107.996094 231.710938 118.035156 C 242.902344 128.074219 282.492188 108.855469 296.933594 114.019531 C 305.730469 117.175781 317.875 110.769531 326.003906 105.222656 C 335.089844 125.207031 340.15625 147.390625 340.15625 170.71875 C 340.15625 258.398438 269.105469 329.4375 181.410156 329.4375 C 93.714844 329.4375 22.566406 258.398438 22.566406 170.71875 C 22.566406 138.117188 32.414062 107.902344 49.246094 82.660156 Z M 49.246094 82.660156 " fill-opacity="0.251" fill-rule="evenodd"/></g><g clip-path="url(#c4fe9039d8)"><path fill="#e46432" d="M 36.050781 106.65625 C 43.414062 105.320312 54.21875 105.894531 58.808594 119.660156 C 65.984375 141.269531 67.609375 142.035156 80.421875 142.417969 C 93.238281 142.800781 100.027344 157.238281 100.792969 166.417969 C 101.558594 175.597656 109.972656 182.863281 119.152344 180.855469 C 128.335938 178.847656 136.75 174.832031 141.914062 178.847656 C 147.078125 182.863281 158.363281 152.457031 186.285156 160.011719 C 214.210938 167.566406 229.511719 157.621094 235.917969 155.613281 C 242.328125 153.605469 251.125 152.839844 255.90625 159.628906 C 260.6875 166.417969 281.917969 161.636719 289.472656 158.003906 C 297.027344 154.371094 317.492188 154.847656 323.902344 166.800781 C 327.246094 173.109375 334.132812 172.441406 339.964844 170.433594 L 339.964844 170.71875 C 339.964844 258.398438 268.914062 329.4375 181.21875 329.4375 C 93.523438 329.4375 22.566406 258.398438 22.566406 170.71875 C 22.566406 147.964844 27.347656 126.257812 36.050781 106.65625 Z M 36.050781 106.65625 " fill-opacity="0.349" fill-rule="evenodd"/></g><g clip-path="url(#b4a43b21ba)"><path fill="#e46432" d="M 25.722656 139.167969 C 31.363281 141.078125 39.492188 145.191406 41.214844 153.316406 C 43.988281 166.128906 48.769531 170.527344 62.828125 168.519531 C 76.882812 166.511719 83.675781 192.902344 81.1875 197.683594 C 78.796875 202.464844 90.367188 213.269531 101.175781 215.277344 C 111.980469 217.285156 108.730469 227.226562 114.371094 234.496094 C 120.015625 241.664062 142.007812 223.691406 168.785156 236.886719 C 195.5625 250.078125 245.195312 253.714844 257.148438 249.695312 C 261.929688 248.070312 319.5 220.917969 322.179688 243.863281 C 295.785156 294.730469 242.613281 329.4375 181.3125 329.4375 C 93.621094 329.4375 22.566406 258.398438 22.566406 170.71875 C 22.566406 159.914062 23.617188 149.300781 25.722656 139.167969 Z M 25.722656 139.167969 " fill-opacity="0.549" fill-rule="evenodd"/></g><g clip-path="url(#445cdeb0e8)"><g clip-path="url(#0e615d5268)"><path fill="url(#b3b60de747)" d="M 43.796875 329.4375 L 43.796875 167.46875 L 329.636719 167.46875 L 329.636719 329.4375 Z M 43.796875 329.4375 " fill-rule="nonzero"/></g></g><path fill="#99ffff" d="M 163.8125 12.957031 C 159.222656 16.875 155.78125 22.707031 155.78125 31.3125 C 155.78125 56.9375 160.5625 65.734375 135.792969 72.140625 C 111.023438 78.546875 118.195312 88.875 114.179688 119.277344 C 110.164062 149.683594 76.40625 109.910156 59.480469 121.765625 C 42.648438 133.621094 40.925781 108.667969 25.914062 137.925781 C 39.875 71.566406 95.246094 20.507812 163.8125 12.957031 Z M 335.089844 131.136719 C 331.742188 134.480469 326.484375 137.253906 318.449219 137.636719 C 294.828125 138.878906 288.996094 152.839844 290.429688 165.652344 C 291.863281 178.464844 273.980469 187.261719 275.988281 195.292969 C 277.996094 203.324219 289.953125 210.113281 291.960938 219.292969 C 293.96875 228.472656 273.597656 228.472656 270.347656 240.136719 C 267.191406 251.703125 276.753906 267.769531 265.949219 274.558594 C 255.140625 281.34375 241.371094 291.574219 243.570312 303.71875 C 245.769531 315.863281 216.410156 325.613281 216.410156 325.613281 C 287.273438 309.550781 340.0625 246.253906 340.0625 170.71875 C 340.0625 157.046875 338.339844 143.851562 335.089844 131.136719 Z M 200.25 100.441406 C 197.859375 99.199219 181.027344 82.46875 163.8125 93.65625 C 146.601562 104.839844 146.21875 108.09375 135.792969 110.484375 C 125.371094 112.875 133.402344 126.449219 142.582031 127.882812 C 151.765625 129.320312 151.957031 128.648438 160.5625 135.246094 C 169.167969 141.84375 174.523438 123.675781 187.148438 125.683594 C 199.769531 127.691406 211.054688 110.292969 200.25 100.441406 Z M 200.25 100.441406 " fill-opacity="0.251" fill-rule="evenodd"/><path fill="#47077f" d="M 325.8125 104.9375 C 350.675781 274.558594 157.5 363 50.109375 260.023438 C 55.652344 268.054688 61.964844 275.800781 69.136719 282.972656 C 131.109375 344.929688 231.617188 344.929688 293.679688 282.972656 C 341.6875 234.78125 352.496094 163.453125 325.8125 104.9375 Z M 325.8125 104.9375 " fill-opacity="0.149" fill-rule="evenodd"/></svg>