<svg xmlns="http://www.w3.org/2000/svg" xmlns:xlink="http://www.w3.org/1999/xlink" width="500" zoomAndPan="magnify" viewBox="0 0 375 374.999991" height="500" preserveAspectRatio="xMidYMid meet" version="1.0"><defs><g/><clipPath id="d1949cbb16"><path d="M 11.089844 112.691406 L 147 112.691406 L 147 248 L 11.089844 248 Z M 11.089844 112.691406 " clip-rule="nonzero"/></clipPath><clipPath id="b760ee827c"><path d="M 146.761719 180.179688 C 146.761719 181.285156 146.734375 182.386719 146.679688 183.492188 C 146.625 184.59375 146.542969 185.695312 146.433594 186.792969 C 146.324219 187.894531 146.191406 188.988281 146.027344 190.082031 C 145.863281 191.175781 145.675781 192.261719 145.457031 193.347656 C 145.242188 194.429688 144.996094 195.507812 144.726562 196.578125 C 144.457031 197.648438 144.164062 198.714844 143.839844 199.769531 C 143.519531 200.828125 143.171875 201.875 142.796875 202.917969 C 142.421875 203.957031 142.023438 204.984375 141.597656 206.007812 C 141.171875 207.027344 140.722656 208.035156 140.25 209.035156 C 139.773438 210.035156 139.273438 211.019531 138.75 211.992188 C 138.230469 212.96875 137.679688 213.929688 137.109375 214.875 C 136.539062 215.824219 135.945312 216.757812 135.328125 217.675781 C 134.714844 218.59375 134.074219 219.496094 133.414062 220.382812 C 132.75 221.269531 132.070312 222.140625 131.363281 222.996094 C 130.660156 223.847656 129.933594 224.683594 129.191406 225.503906 C 128.445312 226.320312 127.679688 227.121094 126.894531 227.902344 C 126.109375 228.683594 125.304688 229.445312 124.484375 230.1875 C 123.660156 230.929688 122.820312 231.648438 121.960938 232.351562 C 121.105469 233.050781 120.230469 233.730469 119.335938 234.386719 C 118.445312 235.046875 117.539062 235.679688 116.617188 236.296875 C 115.691406 236.910156 114.753906 237.5 113.804688 238.066406 C 112.851562 238.636719 111.886719 239.179688 110.90625 239.699219 C 109.925781 240.222656 108.9375 240.71875 107.933594 241.1875 C 106.929688 241.660156 105.914062 242.109375 104.890625 242.53125 C 103.863281 242.953125 102.828125 243.351562 101.78125 243.722656 C 100.738281 244.097656 99.683594 244.441406 98.621094 244.761719 C 97.558594 245.082031 96.488281 245.378906 95.414062 245.648438 C 94.335938 245.914062 93.253906 246.15625 92.164062 246.371094 C 91.074219 246.585938 89.984375 246.777344 88.882812 246.9375 C 87.785156 247.101562 86.683594 247.234375 85.582031 247.34375 C 84.476562 247.453125 83.367188 247.535156 82.261719 247.589844 C 81.152344 247.640625 80.042969 247.667969 78.933594 247.667969 C 77.820312 247.667969 76.710938 247.640625 75.605469 247.589844 C 74.496094 247.535156 73.386719 247.453125 72.285156 247.34375 C 71.179688 247.234375 70.078125 247.101562 68.980469 246.9375 C 67.882812 246.777344 66.789062 246.585938 65.699219 246.371094 C 64.609375 246.15625 63.527344 245.914062 62.449219 245.648438 C 61.375 245.378906 60.304688 245.082031 59.242188 244.761719 C 58.179688 244.441406 57.125 244.097656 56.082031 243.722656 C 55.035156 243.351562 54 242.953125 52.976562 242.53125 C 51.949219 242.109375 50.933594 241.660156 49.929688 241.1875 C 48.929688 240.71875 47.9375 240.222656 46.957031 239.699219 C 45.980469 239.179688 45.011719 238.636719 44.0625 238.066406 C 43.109375 237.5 42.171875 236.910156 41.25 236.296875 C 40.324219 235.679688 39.417969 235.046875 38.527344 234.386719 C 37.636719 233.730469 36.761719 233.050781 35.902344 232.351562 C 35.042969 231.648438 34.203125 230.929688 33.382812 230.1875 C 32.558594 229.445312 31.753906 228.683594 30.96875 227.902344 C 30.183594 227.121094 29.417969 226.320312 28.675781 225.503906 C 27.929688 224.683594 27.203125 223.847656 26.5 222.996094 C 25.796875 222.140625 25.113281 221.269531 24.453125 220.382812 C 23.789062 219.496094 23.152344 218.59375 22.535156 217.675781 C 21.917969 216.757812 21.324219 215.824219 20.753906 214.875 C 20.183594 213.929688 19.636719 212.96875 19.113281 211.992188 C 18.589844 211.019531 18.089844 210.035156 17.617188 209.035156 C 17.140625 208.035156 16.691406 207.027344 16.265625 206.007812 C 15.839844 204.984375 15.441406 203.957031 15.066406 202.917969 C 14.695312 201.875 14.347656 200.828125 14.023438 199.769531 C 13.703125 198.714844 13.40625 197.648438 13.136719 196.578125 C 12.867188 195.507812 12.625 194.429688 12.40625 193.347656 C 12.191406 192.261719 12 191.175781 11.835938 190.082031 C 11.675781 188.988281 11.539062 187.894531 11.429688 186.792969 C 11.320312 185.695312 11.238281 184.59375 11.183594 183.492188 C 11.128906 182.386719 11.101562 181.285156 11.101562 180.179688 C 11.101562 179.074219 11.128906 177.972656 11.183594 176.867188 C 11.238281 175.765625 11.320312 174.664062 11.429688 173.5625 C 11.539062 172.464844 11.675781 171.371094 11.835938 170.277344 C 12 169.183594 12.191406 168.097656 12.40625 167.011719 C 12.625 165.929688 12.867188 164.851562 13.136719 163.78125 C 13.40625 162.710938 13.703125 161.644531 14.023438 160.589844 C 14.347656 159.53125 14.695312 158.484375 15.066406 157.441406 C 15.441406 156.402344 15.839844 155.371094 16.265625 154.351562 C 16.691406 153.332031 17.140625 152.324219 17.617188 151.324219 C 18.089844 150.324219 18.589844 149.339844 19.113281 148.363281 C 19.636719 147.390625 20.183594 146.429688 20.753906 145.484375 C 21.324219 144.535156 21.917969 143.601562 22.535156 142.683594 C 23.152344 141.765625 23.789062 140.863281 24.453125 139.976562 C 25.113281 139.089844 25.796875 138.21875 26.5 137.363281 C 27.203125 136.511719 27.929688 135.675781 28.675781 134.855469 C 29.417969 134.039062 30.183594 133.238281 30.96875 132.457031 C 31.753906 131.675781 32.558594 130.914062 33.382812 130.171875 C 34.203125 129.429688 35.042969 128.710938 35.902344 128.007812 C 36.761719 127.308594 37.636719 126.628906 38.527344 125.972656 C 39.417969 125.3125 40.324219 124.675781 41.25 124.0625 C 42.171875 123.449219 43.109375 122.859375 44.0625 122.292969 C 45.011719 121.722656 45.980469 121.179688 46.957031 120.660156 C 47.9375 120.136719 48.929688 119.640625 49.929688 119.167969 C 50.933594 118.695312 51.949219 118.25 52.976562 117.828125 C 54 117.40625 55.035156 117.007812 56.082031 116.636719 C 57.125 116.261719 58.179688 115.917969 59.242188 115.597656 C 60.304688 115.273438 61.375 114.980469 62.449219 114.710938 C 63.527344 114.445312 64.609375 114.203125 65.699219 113.988281 C 66.789062 113.769531 67.882812 113.582031 68.980469 113.421875 C 70.078125 113.257812 71.179688 113.121094 72.285156 113.015625 C 73.386719 112.90625 74.496094 112.824219 75.605469 112.769531 C 76.710938 112.714844 77.820312 112.691406 78.933594 112.691406 C 80.042969 112.691406 81.152344 112.714844 82.261719 112.769531 C 83.367188 112.824219 84.476562 112.90625 85.582031 113.015625 C 86.683594 113.121094 87.785156 113.257812 88.882812 113.421875 C 89.984375 113.582031 91.074219 113.769531 92.164062 113.988281 C 93.253906 114.203125 94.335938 114.445312 95.414062 114.710938 C 96.488281 114.980469 97.558594 115.273438 98.621094 115.597656 C 99.683594 115.917969 100.738281 116.261719 101.78125 116.636719 C 102.828125 117.007812 103.863281 117.40625 104.890625 117.828125 C 105.914062 118.25 106.929688 118.695312 107.933594 119.167969 C 108.9375 119.640625 109.925781 120.136719 110.90625 120.660156 C 111.886719 121.179688 112.851562 121.722656 113.804688 122.292969 C 114.753906 122.859375 115.691406 123.449219 116.617188 124.0625 C 117.539062 124.675781 118.445312 125.3125 119.335938 125.972656 C 120.230469 126.628906 121.105469 127.308594 121.960938 128.007812 C 122.820312 128.710938 123.660156 129.429688 124.484375 130.171875 C 125.304688 130.914062 126.109375 131.675781 126.894531 132.457031 C 127.679688 133.238281 128.445312 134.039062 129.191406 134.855469 C 129.933594 135.675781 130.660156 136.511719 131.363281 137.363281 C 132.070312 138.21875 132.75 139.089844 133.414062 139.976562 C 134.074219 140.863281 134.714844 141.765625 135.328125 142.683594 C 135.945312 143.601562 136.539062 144.535156 137.109375 145.484375 C 137.679688 146.429688 138.230469 147.390625 138.75 148.363281 C 139.273438 149.339844 139.773438 150.324219 140.25 151.324219 C 140.722656 152.324219 141.171875 153.332031 141.597656 154.351562 C 142.023438 155.371094 142.421875 156.402344 142.796875 157.441406 C 143.171875 158.484375 143.519531 159.53125 143.839844 160.589844 C 144.164062 161.644531 144.457031 162.710938 144.726562 163.78125 C 144.996094 164.851562 145.242188 165.929688 145.457031 167.011719 C 145.675781 168.097656 145.863281 169.183594 146.027344 170.277344 C 146.191406 171.371094 146.324219 172.464844 146.433594 173.5625 C 146.542969 174.664062 146.625 175.765625 146.679688 176.867188 C 146.734375 177.972656 146.761719 179.074219 146.761719 180.179688 Z M 146.761719 180.179688 " clip-rule="nonzero"/></clipPath><linearGradient x1="2748.968887" gradientTransform="matrix(0.011584, 0, 0, -0.0115261, -20.261344, 86.638188)" y1="-2219.402372" x2="14377.047601" gradientUnits="userSpaceOnUse" y2="-14011.687308" id="4b8f24e2ee"><stop stop-opacity="1" stop-color="rgb(100%, 79.998779%, 59.999084%)" offset="0"/><stop stop-opacity="1" stop-color="rgb(100%, 79.998779%, 59.999084%)" offset="0.125"/><stop stop-opacity="1" stop-color="rgb(100%, 79.998779%, 59.999084%)" offset="0.140625"/><stop stop-opacity="1" stop-color="rgb(100%, 79.998779%, 59.999084%)" offset="0.148438"/><stop stop-opacity="1" stop-color="rgb(100%, 79.864502%, 59.73053%)" offset="0.152344"/><stop stop-opacity="1" stop-color="rgb(100%, 79.730225%, 59.461975%)" offset="0.15625"/><stop stop-opacity="1" stop-color="rgb(100%, 79.595947%, 59.19342%)" offset="0.160156"/><stop stop-opacity="1" stop-color="rgb(100%, 79.46167%, 58.924866%)" offset="0.164062"/><stop stop-opacity="1" stop-color="rgb(100%, 79.327393%, 58.656311%)" offset="0.167969"/><stop stop-opacity="1" stop-color="rgb(100%, 79.193115%, 58.387756%)" offset="0.171875"/><stop stop-opacity="1" stop-color="rgb(100%, 79.058838%, 58.119202%)" offset="0.175781"/><stop stop-opacity="1" stop-color="rgb(100%, 78.924561%, 57.850647%)" offset="0.179688"/><stop stop-opacity="1" stop-color="rgb(100%, 78.790283%, 57.582092%)" offset="0.183594"/><stop stop-opacity="1" stop-color="rgb(100%, 78.656006%, 57.313538%)" offset="0.1875"/><stop stop-opacity="1" stop-color="rgb(100%, 78.521729%, 57.044983%)" offset="0.191406"/><stop stop-opacity="1" stop-color="rgb(100%, 78.387451%, 56.776428%)" offset="0.195312"/><stop stop-opacity="1" stop-color="rgb(100%, 78.253174%, 56.507874%)" offset="0.199219"/><stop stop-opacity="1" stop-color="rgb(100%, 78.118896%, 56.239319%)" offset="0.203125"/><stop stop-opacity="1" stop-color="rgb(100%, 77.984619%, 55.970764%)" offset="0.207031"/><stop stop-opacity="1" stop-color="rgb(100%, 77.850342%, 55.702209%)" offset="0.210938"/><stop stop-opacity="1" stop-color="rgb(100%, 77.716064%, 55.433655%)" offset="0.214844"/><stop stop-opacity="1" stop-color="rgb(100%, 77.583313%, 55.166626%)" offset="0.21875"/><stop stop-opacity="1" stop-color="rgb(100%, 77.449036%, 54.898071%)" offset="0.222656"/><stop stop-opacity="1" stop-color="rgb(100%, 77.314758%, 54.629517%)" offset="0.226563"/><stop stop-opacity="1" stop-color="rgb(100%, 77.180481%, 54.360962%)" offset="0.230469"/><stop stop-opacity="1" stop-color="rgb(100%, 77.046204%, 54.092407%)" offset="0.234375"/><stop stop-opacity="1" stop-color="rgb(100%, 76.911926%, 53.823853%)" offset="0.238281"/><stop stop-opacity="1" stop-color="rgb(100%, 76.777649%, 53.555298%)" offset="0.242188"/><stop stop-opacity="1" stop-color="rgb(100%, 76.643372%, 53.286743%)" offset="0.246094"/><stop stop-opacity="1" stop-color="rgb(100%, 76.509094%, 53.018188%)" offset="0.25"/><stop stop-opacity="1" stop-color="rgb(100%, 76.374817%, 52.749634%)" offset="0.253906"/><stop stop-opacity="1" stop-color="rgb(100%, 76.24054%, 52.481079%)" offset="0.257812"/><stop stop-opacity="1" stop-color="rgb(100%, 76.106262%, 52.212524%)" offset="0.261719"/><stop stop-opacity="1" stop-color="rgb(100%, 75.971985%, 51.94397%)" offset="0.265625"/><stop stop-opacity="1" stop-color="rgb(100%, 75.837708%, 51.675415%)" offset="0.269531"/><stop stop-opacity="1" stop-color="rgb(100%, 75.70343%, 51.40686%)" offset="0.273438"/><stop stop-opacity="1" stop-color="rgb(100%, 75.569153%, 51.138306%)" offset="0.277344"/><stop stop-opacity="1" stop-color="rgb(100%, 75.434875%, 50.871277%)" offset="0.28125"/><stop stop-opacity="1" stop-color="rgb(100%, 75.300598%, 50.602722%)" offset="0.285156"/><stop stop-opacity="1" stop-color="rgb(100%, 75.166321%, 50.334167%)" offset="0.289063"/><stop stop-opacity="1" stop-color="rgb(100%, 75.032043%, 50.065613%)" offset="0.292969"/><stop stop-opacity="1" stop-color="rgb(100%, 74.897766%, 49.797058%)" offset="0.296875"/><stop stop-opacity="1" stop-color="rgb(100%, 74.763489%, 49.528503%)" offset="0.300781"/><stop stop-opacity="1" stop-color="rgb(100%, 74.629211%, 49.259949%)" offset="0.304688"/><stop stop-opacity="1" stop-color="rgb(100%, 74.494934%, 48.991394%)" offset="0.308594"/><stop stop-opacity="1" stop-color="rgb(100%, 74.360657%, 48.722839%)" offset="0.3125"/><stop stop-opacity="1" stop-color="rgb(100%, 74.226379%, 48.454285%)" offset="0.316406"/><stop stop-opacity="1" stop-color="rgb(100%, 74.092102%, 48.18573%)" offset="0.320312"/><stop stop-opacity="1" stop-color="rgb(100%, 73.957825%, 47.917175%)" offset="0.324219"/><stop stop-opacity="1" stop-color="rgb(100%, 73.823547%, 47.648621%)" offset="0.328125"/><stop stop-opacity="1" stop-color="rgb(100%, 73.68927%, 47.380066%)" offset="0.332031"/><stop stop-opacity="1" stop-color="rgb(100%, 73.554993%, 47.111511%)" offset="0.335938"/><stop stop-opacity="1" stop-color="rgb(100%, 73.420715%, 46.842957%)" offset="0.339844"/><stop stop-opacity="1" stop-color="rgb(100%, 73.286438%, 46.574402%)" offset="0.34375"/><stop stop-opacity="1" stop-color="rgb(100%, 73.152161%, 46.305847%)" offset="0.347656"/><stop stop-opacity="1" stop-color="rgb(100%, 73.019409%, 46.038818%)" offset="0.351562"/><stop stop-opacity="1" stop-color="rgb(100%, 72.885132%, 45.770264%)" offset="0.355469"/><stop stop-opacity="1" stop-color="rgb(100%, 72.750854%, 45.501709%)" offset="0.359375"/><stop stop-opacity="1" stop-color="rgb(100%, 72.616577%, 45.233154%)" offset="0.363281"/><stop stop-opacity="1" stop-color="rgb(100%, 72.4823%, 44.9646%)" offset="0.367188"/><stop stop-opacity="1" stop-color="rgb(100%, 72.348022%, 44.696045%)" offset="0.371094"/><stop stop-opacity="1" stop-color="rgb(100%, 72.213745%, 44.42749%)" offset="0.375"/><stop stop-opacity="1" stop-color="rgb(100%, 72.079468%, 44.158936%)" offset="0.378906"/><stop stop-opacity="1" stop-color="rgb(100%, 71.94519%, 43.890381%)" offset="0.382812"/><stop stop-opacity="1" stop-color="rgb(100%, 71.810913%, 43.621826%)" offset="0.386719"/><stop stop-opacity="1" stop-color="rgb(100%, 71.676636%, 43.353271%)" offset="0.390625"/><stop stop-opacity="1" stop-color="rgb(100%, 71.542358%, 43.084717%)" offset="0.394531"/><stop stop-opacity="1" stop-color="rgb(100%, 71.408081%, 42.816162%)" offset="0.398438"/><stop stop-opacity="1" stop-color="rgb(100%, 71.273804%, 42.547607%)" offset="0.402344"/><stop stop-opacity="1" stop-color="rgb(100%, 71.139526%, 42.279053%)" offset="0.40625"/><stop stop-opacity="1" stop-color="rgb(100%, 71.005249%, 42.010498%)" offset="0.410156"/><stop stop-opacity="1" stop-color="rgb(100%, 70.870972%, 41.741943%)" offset="0.414062"/><stop stop-opacity="1" stop-color="rgb(100%, 70.736694%, 41.473389%)" offset="0.417969"/><stop stop-opacity="1" stop-color="rgb(100%, 70.602417%, 41.20636%)" offset="0.421875"/><stop stop-opacity="1" stop-color="rgb(100%, 70.46814%, 40.937805%)" offset="0.425781"/><stop stop-opacity="1" stop-color="rgb(100%, 70.333862%, 40.66925%)" offset="0.429688"/><stop stop-opacity="1" stop-color="rgb(100%, 70.199585%, 40.400696%)" offset="0.433594"/><stop stop-opacity="1" stop-color="rgb(100%, 70.065308%, 40.132141%)" offset="0.4375"/><stop stop-opacity="1" stop-color="rgb(100%, 69.93103%, 39.863586%)" offset="0.441406"/><stop stop-opacity="1" stop-color="rgb(100%, 69.796753%, 39.595032%)" offset="0.445312"/><stop stop-opacity="1" stop-color="rgb(100%, 69.662476%, 39.326477%)" offset="0.449219"/><stop stop-opacity="1" stop-color="rgb(100%, 69.528198%, 39.057922%)" offset="0.453125"/><stop stop-opacity="1" stop-color="rgb(100%, 69.393921%, 38.789368%)" offset="0.457031"/><stop stop-opacity="1" stop-color="rgb(100%, 69.259644%, 38.520813%)" offset="0.460938"/><stop stop-opacity="1" stop-color="rgb(100%, 69.125366%, 38.252258%)" offset="0.464844"/><stop stop-opacity="1" stop-color="rgb(100%, 68.991089%, 37.983704%)" offset="0.46875"/><stop stop-opacity="1" stop-color="rgb(100%, 68.856812%, 37.715149%)" offset="0.472656"/><stop stop-opacity="1" stop-color="rgb(100%, 68.722534%, 37.446594%)" offset="0.476562"/><stop stop-opacity="1" stop-color="rgb(100%, 68.588257%, 37.17804%)" offset="0.480469"/><stop stop-opacity="1" stop-color="rgb(100%, 68.453979%, 36.909485%)" offset="0.484375"/><stop stop-opacity="1" stop-color="rgb(100%, 68.319702%, 36.64093%)" offset="0.488281"/><stop stop-opacity="1" stop-color="rgb(100%, 68.186951%, 36.373901%)" offset="0.492188"/><stop stop-opacity="1" stop-color="rgb(100%, 68.052673%, 36.105347%)" offset="0.496094"/><stop stop-opacity="1" stop-color="rgb(100%, 67.918396%, 35.836792%)" offset="0.5"/><stop stop-opacity="1" stop-color="rgb(100%, 67.784119%, 35.568237%)" offset="0.503906"/><stop stop-opacity="1" stop-color="rgb(100%, 67.649841%, 35.299683%)" offset="0.507812"/><stop stop-opacity="1" stop-color="rgb(100%, 67.515564%, 35.031128%)" offset="0.511719"/><stop stop-opacity="1" stop-color="rgb(100%, 67.381287%, 34.762573%)" offset="0.515625"/><stop stop-opacity="1" stop-color="rgb(100%, 67.247009%, 34.494019%)" offset="0.519531"/><stop stop-opacity="1" stop-color="rgb(100%, 67.112732%, 34.225464%)" offset="0.523438"/><stop stop-opacity="1" stop-color="rgb(100%, 66.978455%, 33.956909%)" offset="0.527344"/><stop stop-opacity="1" stop-color="rgb(100%, 66.844177%, 33.688354%)" offset="0.53125"/><stop stop-opacity="1" stop-color="rgb(100%, 66.7099%, 33.4198%)" offset="0.535156"/><stop stop-opacity="1" stop-color="rgb(100%, 66.575623%, 33.151245%)" offset="0.539062"/><stop stop-opacity="1" stop-color="rgb(100%, 66.441345%, 32.88269%)" offset="0.542969"/><stop stop-opacity="1" stop-color="rgb(100%, 66.307068%, 32.614136%)" offset="0.546875"/><stop stop-opacity="1" stop-color="rgb(100%, 66.172791%, 32.345581%)" offset="0.550781"/><stop stop-opacity="1" stop-color="rgb(100%, 66.038513%, 32.077026%)" offset="0.554688"/><stop stop-opacity="1" stop-color="rgb(100%, 65.904236%, 31.808472%)" offset="0.558594"/><stop stop-opacity="1" stop-color="rgb(100%, 65.769958%, 31.541443%)" offset="0.5625"/><stop stop-opacity="1" stop-color="rgb(100%, 65.635681%, 31.272888%)" offset="0.566406"/><stop stop-opacity="1" stop-color="rgb(100%, 65.501404%, 31.004333%)" offset="0.570312"/><stop stop-opacity="1" stop-color="rgb(100%, 65.367126%, 30.735779%)" offset="0.574219"/><stop stop-opacity="1" stop-color="rgb(100%, 65.232849%, 30.467224%)" offset="0.578125"/><stop stop-opacity="1" stop-color="rgb(100%, 65.098572%, 30.198669%)" offset="0.582031"/><stop stop-opacity="1" stop-color="rgb(100%, 64.964294%, 29.930115%)" offset="0.585938"/><stop stop-opacity="1" stop-color="rgb(100%, 64.830017%, 29.66156%)" offset="0.589844"/><stop stop-opacity="1" stop-color="rgb(100%, 64.69574%, 29.393005%)" offset="0.59375"/><stop stop-opacity="1" stop-color="rgb(100%, 64.561462%, 29.124451%)" offset="0.597656"/><stop stop-opacity="1" stop-color="rgb(100%, 64.427185%, 28.855896%)" offset="0.601562"/><stop stop-opacity="1" stop-color="rgb(100%, 64.292908%, 28.587341%)" offset="0.605469"/><stop stop-opacity="1" stop-color="rgb(100%, 64.15863%, 28.318787%)" offset="0.609375"/><stop stop-opacity="1" stop-color="rgb(100%, 64.024353%, 28.050232%)" offset="0.613281"/><stop stop-opacity="1" stop-color="rgb(100%, 63.890076%, 27.781677%)" offset="0.617188"/><stop stop-opacity="1" stop-color="rgb(100%, 63.755798%, 27.513123%)" offset="0.621094"/><stop stop-opacity="1" stop-color="rgb(100%, 63.623047%, 27.246094%)" offset="0.625"/><stop stop-opacity="1" stop-color="rgb(100%, 63.48877%, 26.977539%)" offset="0.628906"/><stop stop-opacity="1" stop-color="rgb(100%, 63.354492%, 26.708984%)" offset="0.632812"/><stop stop-opacity="1" stop-color="rgb(100%, 63.220215%, 26.44043%)" offset="0.636719"/><stop stop-opacity="1" stop-color="rgb(100%, 63.085938%, 26.171875%)" offset="0.640625"/><stop stop-opacity="1" stop-color="rgb(100%, 62.95166%, 25.90332%)" offset="0.644531"/><stop stop-opacity="1" stop-color="rgb(100%, 62.817383%, 25.634766%)" offset="0.648438"/><stop stop-opacity="1" stop-color="rgb(100%, 62.683105%, 25.366211%)" offset="0.652344"/><stop stop-opacity="1" stop-color="rgb(100%, 62.548828%, 25.097656%)" offset="0.65625"/><stop stop-opacity="1" stop-color="rgb(100%, 62.414551%, 24.829102%)" offset="0.660156"/><stop stop-opacity="1" stop-color="rgb(100%, 62.280273%, 24.560547%)" offset="0.664063"/><stop stop-opacity="1" stop-color="rgb(100%, 62.145996%, 24.291992%)" offset="0.667969"/><stop stop-opacity="1" stop-color="rgb(100%, 62.011719%, 24.023438%)" offset="0.671875"/><stop stop-opacity="1" stop-color="rgb(100%, 61.877441%, 23.754883%)" offset="0.675781"/><stop stop-opacity="1" stop-color="rgb(100%, 61.743164%, 23.486328%)" offset="0.679687"/><stop stop-opacity="1" stop-color="rgb(100%, 61.608887%, 23.217773%)" offset="0.683594"/><stop stop-opacity="1" stop-color="rgb(100%, 61.474609%, 22.949219%)" offset="0.6875"/><stop stop-opacity="1" stop-color="rgb(100%, 61.340332%, 22.680664%)" offset="0.691406"/><stop stop-opacity="1" stop-color="rgb(100%, 61.206055%, 22.413635%)" offset="0.695312"/><stop stop-opacity="1" stop-color="rgb(100%, 61.071777%, 22.145081%)" offset="0.699219"/><stop stop-opacity="1" stop-color="rgb(100%, 60.9375%, 21.876526%)" offset="0.703125"/><stop stop-opacity="1" stop-color="rgb(100%, 60.803223%, 21.607971%)" offset="0.707031"/><stop stop-opacity="1" stop-color="rgb(100%, 60.668945%, 21.339417%)" offset="0.710937"/><stop stop-opacity="1" stop-color="rgb(100%, 60.534668%, 21.070862%)" offset="0.714844"/><stop stop-opacity="1" stop-color="rgb(100%, 60.400391%, 20.802307%)" offset="0.71875"/><stop stop-opacity="1" stop-color="rgb(100%, 60.266113%, 20.533752%)" offset="0.722656"/><stop stop-opacity="1" stop-color="rgb(100%, 60.131836%, 20.265198%)" offset="0.726562"/><stop stop-opacity="1" stop-color="rgb(100%, 60.064697%, 20.132446%)" offset="0.734375"/><stop stop-opacity="1" stop-color="rgb(100%, 59.999084%, 19.999695%)" offset="0.75"/><stop stop-opacity="1" stop-color="rgb(100%, 59.999084%, 19.999695%)" offset="1"/></linearGradient><clipPath id="c54db739d6"><path d="M 38 112.691406 L 128 112.691406 L 128 135 L 38 135 Z M 38 112.691406 " clip-rule="nonzero"/></clipPath><clipPath id="a9d022a94e"><path d="M 11.089844 142 L 147 142 L 147 248 L 11.089844 248 Z M 11.089844 142 " clip-rule="nonzero"/></clipPath><clipPath id="09487014e7"><path d="M 11.089844 152 L 147 152 L 147 248 L 11.089844 248 Z M 11.089844 152 " clip-rule="nonzero"/></clipPath><clipPath id="9b8d849ea6"><path d="M 11.089844 166 L 140 166 L 140 248 L 11.089844 248 Z M 11.089844 166 " clip-rule="nonzero"/></clipPath><clipPath id="84dfde25ad"><path d="M 20 179 L 142 179 L 142 248 L 20 248 Z M 20 179 " clip-rule="nonzero"/></clipPath><clipPath id="6ef349516c"><path d="M 96.257812 196.035156 C 96.257812 196.035156 96.421875 187.292969 92.90625 186.765625 C 89.390625 186.238281 89.921875 181.316406 84.285156 180.058594 C 78.644531 178.796875 68.554688 179.285156 66.59375 185.992188 C 64.632812 192.703125 61.484375 191.847656 58.542969 195.425781 C 55.601562 199.003906 56.582031 207.257812 59.402344 208.964844 C 62.21875 210.671875 66.917969 216.445312 67.164062 220.632812 C 67.410156 224.820312 70.761719 226.242188 71.945312 227.421875 C 73.128906 228.601562 72.027344 233.03125 66.386719 231.324219 C 60.75 229.617188 61.15625 225.714844 55.601562 226.039062 C 50.042969 226.363281 44.242188 227.910156 42.523438 223.558594 C 40.808594 219.210938 36.273438 220.671875 32.597656 219.902344 C 28.917969 219.128906 28.304688 214.980469 26.304688 213.800781 C 24.300781 212.664062 21.972656 211.363281 20.175781 213.925781 C 31.984375 234.128906 53.84375 247.667969 78.933594 247.667969 C 97.359375 247.667969 114.03125 240.351562 126.25 228.519531 C 126.125 228.480469 122.695312 227.015625 116.320312 231 C 109.824219 235.066406 109.742188 228.113281 105.449219 228.519531 C 101.160156 228.925781 98.464844 229.617188 97.320312 227.054688 C 96.214844 224.496094 88.535156 230.023438 86.285156 228.398438 C 84.082031 226.773438 86.367188 222.378906 91.394531 222.789062 C 96.421875 223.195312 98.136719 218.964844 101.242188 218.03125 C 104.308594 217.09375 106.71875 217.625 109.085938 218.355469 C 111.5 219.128906 118.648438 218.601562 120.363281 214.941406 C 122.082031 211.28125 124.65625 211.039062 128.046875 209.941406 C 131.480469 208.84375 133.765625 198.476562 130.785156 194.652344 C 127.800781 190.832031 127.964844 185.992188 126.085938 183.433594 C 124.207031 180.871094 120.527344 179.855469 116.605469 181.96875 C 112.683594 184.082031 113.621094 181.722656 109.699219 180.707031 C 105.777344 179.691406 103.285156 183.839844 103.734375 185.910156 C 104.144531 187.945312 105.289062 191.277344 103.488281 192.457031 C 101.691406 193.675781 98.628906 192.824219 96.257812 196.035156 Z M 141.367188 187.539062 C 141.367188 187.539062 138.222656 182.007812 133.929688 182.171875 C 129.640625 182.335938 132.378906 188.109375 133.765625 190.261719 C 135.117188 192.375 131.5625 194.003906 134.707031 196.402344 C 137.851562 198.800781 138.875 193.191406 140.265625 192.5 C 141.613281 191.808594 142.308594 189.691406 141.367188 187.539062 Z M 141.367188 187.539062 " clip-rule="evenodd"/></clipPath><linearGradient x1="3490.651694" gradientTransform="matrix(0.011584, 0, 0, -0.0115261, -20.261344, 86.638188)" y1="-11015.5928" x2="14033.862512" gradientUnits="userSpaceOnUse" y2="-11015.5928" id="3608d2e883"><stop stop-opacity="1" stop-color="rgb(100%, 79.998779%, 59.999084%)" offset="0"/><stop stop-opacity="1" stop-color="rgb(100%, 79.925537%, 59.851074%)" offset="0.0078125"/><stop stop-opacity="1" stop-color="rgb(100%, 79.772949%, 59.547424%)" offset="0.015625"/><stop stop-opacity="1" stop-color="rgb(100%, 79.615784%, 59.234619%)" offset="0.0234375"/><stop stop-opacity="1" stop-color="rgb(100%, 79.458618%, 58.920288%)" offset="0.03125"/><stop stop-opacity="1" stop-color="rgb(100%, 79.301453%, 58.605957%)" offset="0.0390625"/><stop stop-opacity="1" stop-color="rgb(100%, 79.145813%, 58.291626%)" offset="0.046875"/><stop stop-opacity="1" stop-color="rgb(100%, 78.988647%, 57.978821%)" offset="0.0546875"/><stop stop-opacity="1" stop-color="rgb(100%, 78.831482%, 57.66449%)" offset="0.0625"/><stop stop-opacity="1" stop-color="rgb(100%, 78.674316%, 57.350159%)" offset="0.0703125"/><stop stop-opacity="1" stop-color="rgb(100%, 78.517151%, 57.037354%)" offset="0.078125"/><stop stop-opacity="1" stop-color="rgb(100%, 78.359985%, 56.723022%)" offset="0.0859375"/><stop stop-opacity="1" stop-color="rgb(100%, 78.20282%, 56.408691%)" offset="0.09375"/><stop stop-opacity="1" stop-color="rgb(100%, 78.04718%, 56.09436%)" offset="0.101563"/><stop stop-opacity="1" stop-color="rgb(100%, 77.890015%, 55.781555%)" offset="0.109375"/><stop stop-opacity="1" stop-color="rgb(100%, 77.732849%, 55.467224%)" offset="0.117188"/><stop stop-opacity="1" stop-color="rgb(100%, 77.575684%, 55.152893%)" offset="0.125"/><stop stop-opacity="1" stop-color="rgb(100%, 77.418518%, 54.838562%)" offset="0.132813"/><stop stop-opacity="1" stop-color="rgb(100%, 77.261353%, 54.525757%)" offset="0.140625"/><stop stop-opacity="1" stop-color="rgb(100%, 77.104187%, 54.211426%)" offset="0.148438"/><stop stop-opacity="1" stop-color="rgb(100%, 76.948547%, 53.897095%)" offset="0.15625"/><stop stop-opacity="1" stop-color="rgb(100%, 76.791382%, 53.58429%)" offset="0.164063"/><stop stop-opacity="1" stop-color="rgb(100%, 76.634216%, 53.269958%)" offset="0.171875"/><stop stop-opacity="1" stop-color="rgb(100%, 76.477051%, 52.955627%)" offset="0.179688"/><stop stop-opacity="1" stop-color="rgb(100%, 76.319885%, 52.641296%)" offset="0.1875"/><stop stop-opacity="1" stop-color="rgb(100%, 76.16272%, 52.328491%)" offset="0.195313"/><stop stop-opacity="1" stop-color="rgb(100%, 76.005554%, 52.01416%)" offset="0.203125"/><stop stop-opacity="1" stop-color="rgb(100%, 75.848389%, 51.699829%)" offset="0.210938"/><stop stop-opacity="1" stop-color="rgb(100%, 75.692749%, 51.385498%)" offset="0.21875"/><stop stop-opacity="1" stop-color="rgb(100%, 75.535583%, 51.072693%)" offset="0.226563"/><stop stop-opacity="1" stop-color="rgb(100%, 75.378418%, 50.758362%)" offset="0.234375"/><stop stop-opacity="1" stop-color="rgb(100%, 75.221252%, 50.444031%)" offset="0.242188"/><stop stop-opacity="1" stop-color="rgb(100%, 75.064087%, 50.131226%)" offset="0.25"/><stop stop-opacity="1" stop-color="rgb(100%, 74.906921%, 49.816895%)" offset="0.257812"/><stop stop-opacity="1" stop-color="rgb(100%, 74.749756%, 49.502563%)" offset="0.265625"/><stop stop-opacity="1" stop-color="rgb(100%, 74.594116%, 49.188232%)" offset="0.273437"/><stop stop-opacity="1" stop-color="rgb(100%, 74.436951%, 48.875427%)" offset="0.28125"/><stop stop-opacity="1" stop-color="rgb(100%, 74.279785%, 48.561096%)" offset="0.289062"/><stop stop-opacity="1" stop-color="rgb(100%, 74.12262%, 48.246765%)" offset="0.296875"/><stop stop-opacity="1" stop-color="rgb(100%, 73.965454%, 47.932434%)" offset="0.304687"/><stop stop-opacity="1" stop-color="rgb(100%, 73.808289%, 47.619629%)" offset="0.3125"/><stop stop-opacity="1" stop-color="rgb(100%, 73.651123%, 47.305298%)" offset="0.320312"/><stop stop-opacity="1" stop-color="rgb(100%, 73.495483%, 46.990967%)" offset="0.328125"/><stop stop-opacity="1" stop-color="rgb(100%, 73.338318%, 46.678162%)" offset="0.335937"/><stop stop-opacity="1" stop-color="rgb(100%, 73.181152%, 46.363831%)" offset="0.34375"/><stop stop-opacity="1" stop-color="rgb(100%, 73.023987%, 46.0495%)" offset="0.351562"/><stop stop-opacity="1" stop-color="rgb(100%, 72.866821%, 45.735168%)" offset="0.359375"/><stop stop-opacity="1" stop-color="rgb(100%, 72.709656%, 45.422363%)" offset="0.367188"/><stop stop-opacity="1" stop-color="rgb(100%, 72.55249%, 45.108032%)" offset="0.375"/><stop stop-opacity="1" stop-color="rgb(100%, 72.396851%, 44.793701%)" offset="0.382812"/><stop stop-opacity="1" stop-color="rgb(100%, 72.239685%, 44.480896%)" offset="0.390625"/><stop stop-opacity="1" stop-color="rgb(100%, 72.08252%, 44.166565%)" offset="0.398438"/><stop stop-opacity="1" stop-color="rgb(100%, 71.925354%, 43.852234%)" offset="0.40625"/><stop stop-opacity="1" stop-color="rgb(100%, 71.768188%, 43.537903%)" offset="0.414063"/><stop stop-opacity="1" stop-color="rgb(100%, 71.611023%, 43.225098%)" offset="0.421875"/><stop stop-opacity="1" stop-color="rgb(100%, 71.453857%, 42.910767%)" offset="0.429688"/><stop stop-opacity="1" stop-color="rgb(100%, 71.296692%, 42.596436%)" offset="0.4375"/><stop stop-opacity="1" stop-color="rgb(100%, 71.141052%, 42.282104%)" offset="0.445313"/><stop stop-opacity="1" stop-color="rgb(100%, 70.983887%, 41.969299%)" offset="0.453125"/><stop stop-opacity="1" stop-color="rgb(100%, 70.826721%, 41.654968%)" offset="0.460938"/><stop stop-opacity="1" stop-color="rgb(100%, 70.669556%, 41.340637%)" offset="0.46875"/><stop stop-opacity="1" stop-color="rgb(100%, 70.51239%, 41.027832%)" offset="0.476563"/><stop stop-opacity="1" stop-color="rgb(100%, 70.355225%, 40.713501%)" offset="0.484375"/><stop stop-opacity="1" stop-color="rgb(100%, 70.198059%, 40.39917%)" offset="0.492188"/><stop stop-opacity="1" stop-color="rgb(100%, 70.042419%, 40.084839%)" offset="0.5"/><stop stop-opacity="1" stop-color="rgb(100%, 69.885254%, 39.772034%)" offset="0.507813"/><stop stop-opacity="1" stop-color="rgb(100%, 69.728088%, 39.457703%)" offset="0.515625"/><stop stop-opacity="1" stop-color="rgb(100%, 69.570923%, 39.143372%)" offset="0.523438"/><stop stop-opacity="1" stop-color="rgb(100%, 69.413757%, 38.829041%)" offset="0.53125"/><stop stop-opacity="1" stop-color="rgb(100%, 69.256592%, 38.516235%)" offset="0.539063"/><stop stop-opacity="1" stop-color="rgb(100%, 69.099426%, 38.201904%)" offset="0.546875"/><stop stop-opacity="1" stop-color="rgb(100%, 68.943787%, 37.887573%)" offset="0.554688"/><stop stop-opacity="1" stop-color="rgb(100%, 68.786621%, 37.574768%)" offset="0.5625"/><stop stop-opacity="1" stop-color="rgb(100%, 68.629456%, 37.260437%)" offset="0.570313"/><stop stop-opacity="1" stop-color="rgb(100%, 68.47229%, 36.946106%)" offset="0.578125"/><stop stop-opacity="1" stop-color="rgb(100%, 68.315125%, 36.631775%)" offset="0.585938"/><stop stop-opacity="1" stop-color="rgb(100%, 68.157959%, 36.31897%)" offset="0.59375"/><stop stop-opacity="1" stop-color="rgb(100%, 68.000793%, 36.004639%)" offset="0.601563"/><stop stop-opacity="1" stop-color="rgb(100%, 67.843628%, 35.690308%)" offset="0.609375"/><stop stop-opacity="1" stop-color="rgb(100%, 67.687988%, 35.375977%)" offset="0.617188"/><stop stop-opacity="1" stop-color="rgb(100%, 67.530823%, 35.063171%)" offset="0.625"/><stop stop-opacity="1" stop-color="rgb(100%, 67.373657%, 34.74884%)" offset="0.632813"/><stop stop-opacity="1" stop-color="rgb(100%, 67.216492%, 34.434509%)" offset="0.640625"/><stop stop-opacity="1" stop-color="rgb(100%, 67.059326%, 34.121704%)" offset="0.648438"/><stop stop-opacity="1" stop-color="rgb(100%, 66.902161%, 33.807373%)" offset="0.65625"/><stop stop-opacity="1" stop-color="rgb(100%, 66.744995%, 33.493042%)" offset="0.664063"/><stop stop-opacity="1" stop-color="rgb(100%, 66.589355%, 33.178711%)" offset="0.671875"/><stop stop-opacity="1" stop-color="rgb(100%, 66.43219%, 32.865906%)" offset="0.679688"/><stop stop-opacity="1" stop-color="rgb(100%, 66.275024%, 32.551575%)" offset="0.6875"/><stop stop-opacity="1" stop-color="rgb(100%, 66.117859%, 32.237244%)" offset="0.695313"/><stop stop-opacity="1" stop-color="rgb(100%, 65.960693%, 31.922913%)" offset="0.703125"/><stop stop-opacity="1" stop-color="rgb(100%, 65.803528%, 31.610107%)" offset="0.710938"/><stop stop-opacity="1" stop-color="rgb(100%, 65.646362%, 31.295776%)" offset="0.71875"/><stop stop-opacity="1" stop-color="rgb(100%, 65.490723%, 30.981445%)" offset="0.726563"/><stop stop-opacity="1" stop-color="rgb(100%, 65.333557%, 30.66864%)" offset="0.734375"/><stop stop-opacity="1" stop-color="rgb(100%, 65.176392%, 30.354309%)" offset="0.742188"/><stop stop-opacity="1" stop-color="rgb(100%, 65.019226%, 30.039978%)" offset="0.75"/><stop stop-opacity="1" stop-color="rgb(100%, 64.862061%, 29.725647%)" offset="0.757813"/><stop stop-opacity="1" stop-color="rgb(100%, 64.704895%, 29.412842%)" offset="0.765625"/><stop stop-opacity="1" stop-color="rgb(100%, 64.547729%, 29.098511%)" offset="0.773438"/><stop stop-opacity="1" stop-color="rgb(100%, 64.390564%, 28.78418%)" offset="0.78125"/><stop stop-opacity="1" stop-color="rgb(100%, 64.234924%, 28.469849%)" offset="0.789063"/><stop stop-opacity="1" stop-color="rgb(100%, 64.077759%, 28.157043%)" offset="0.796875"/><stop stop-opacity="1" stop-color="rgb(100%, 63.920593%, 27.842712%)" offset="0.804688"/><stop stop-opacity="1" stop-color="rgb(100%, 63.763428%, 27.528381%)" offset="0.8125"/><stop stop-opacity="1" stop-color="rgb(100%, 63.606262%, 27.215576%)" offset="0.820313"/><stop stop-opacity="1" stop-color="rgb(100%, 63.449097%, 26.901245%)" offset="0.828125"/><stop stop-opacity="1" stop-color="rgb(100%, 63.291931%, 26.586914%)" offset="0.835938"/><stop stop-opacity="1" stop-color="rgb(100%, 63.136292%, 26.272583%)" offset="0.84375"/><stop stop-opacity="1" stop-color="rgb(100%, 62.979126%, 25.959778%)" offset="0.851563"/><stop stop-opacity="1" stop-color="rgb(100%, 62.82196%, 25.645447%)" offset="0.859375"/><stop stop-opacity="1" stop-color="rgb(100%, 62.664795%, 25.331116%)" offset="0.867188"/><stop stop-opacity="1" stop-color="rgb(100%, 62.507629%, 25.016785%)" offset="0.875"/><stop stop-opacity="1" stop-color="rgb(100%, 62.350464%, 24.703979%)" offset="0.882813"/><stop stop-opacity="1" stop-color="rgb(100%, 62.193298%, 24.389648%)" offset="0.890625"/><stop stop-opacity="1" stop-color="rgb(100%, 62.037659%, 24.075317%)" offset="0.898438"/><stop stop-opacity="1" stop-color="rgb(100%, 61.880493%, 23.762512%)" offset="0.90625"/><stop stop-opacity="1" stop-color="rgb(100%, 61.723328%, 23.448181%)" offset="0.914063"/><stop stop-opacity="1" stop-color="rgb(100%, 61.566162%, 23.13385%)" offset="0.921875"/><stop stop-opacity="1" stop-color="rgb(100%, 61.408997%, 22.819519%)" offset="0.929688"/><stop stop-opacity="1" stop-color="rgb(100%, 61.251831%, 22.506714%)" offset="0.9375"/><stop stop-opacity="1" stop-color="rgb(100%, 61.094666%, 22.192383%)" offset="0.945313"/><stop stop-opacity="1" stop-color="rgb(100%, 60.9375%, 21.878052%)" offset="0.953125"/><stop stop-opacity="1" stop-color="rgb(100%, 60.78186%, 21.563721%)" offset="0.960938"/><stop stop-opacity="1" stop-color="rgb(100%, 60.624695%, 21.250916%)" offset="0.96875"/><stop stop-opacity="1" stop-color="rgb(100%, 60.467529%, 20.936584%)" offset="0.976563"/><stop stop-opacity="1" stop-color="rgb(100%, 60.310364%, 20.622253%)" offset="0.984375"/><stop stop-opacity="1" stop-color="rgb(100%, 60.153198%, 20.309448%)" offset="0.992188"/><stop stop-opacity="1" stop-color="rgb(100%, 60.037231%, 20.075989%)" offset="1"/></linearGradient></defs><g fill="#fe9932" fill-opacity="1"><g transform="translate(151.731571, 210.32815)"><g><path d="M 12.46875 -35.65625 C 13.914062 -38.726562 16.21875 -41.28125 19.375 -43.3125 C 22.53125 -45.351562 26.285156 -46.375 30.640625 -46.375 C 34.765625 -46.375 38.488281 -45.410156 41.8125 -43.484375 C 45.132812 -41.554688 47.726562 -38.820312 49.59375 -35.28125 C 51.457031 -31.738281 52.390625 -27.625 52.390625 -22.9375 C 52.390625 -18.25 51.457031 -14.117188 49.59375 -10.546875 C 47.726562 -6.972656 45.132812 -4.207031 41.8125 -2.25 C 38.488281 -0.300781 34.765625 0.671875 30.640625 0.671875 C 26.335938 0.671875 22.59375 -0.34375 19.40625 -2.375 C 16.226562 -4.414062 13.914062 -6.972656 12.46875 -10.046875 L 12.46875 21.59375 L 6.703125 21.59375 L 6.703125 -45.703125 L 12.46875 -45.703125 Z M 46.453125 -22.9375 C 46.453125 -26.726562 45.710938 -30.003906 44.234375 -32.765625 C 42.753906 -35.523438 40.726562 -37.628906 38.15625 -39.078125 C 35.59375 -40.535156 32.695312 -41.265625 29.46875 -41.265625 C 26.34375 -41.265625 23.476562 -40.507812 20.875 -39 C 18.28125 -37.5 16.226562 -35.351562 14.71875 -32.5625 C 13.21875 -29.769531 12.46875 -26.53125 12.46875 -22.84375 C 12.46875 -19.164062 13.21875 -15.929688 14.71875 -13.140625 C 16.226562 -10.347656 18.28125 -8.195312 20.875 -6.6875 C 23.476562 -5.1875 26.34375 -4.4375 29.46875 -4.4375 C 32.695312 -4.4375 35.59375 -5.175781 38.15625 -6.65625 C 40.726562 -8.132812 42.753906 -10.28125 44.234375 -13.09375 C 45.710938 -15.914062 46.453125 -19.195312 46.453125 -22.9375 Z M 46.453125 -22.9375 "/></g></g></g><g fill="#fe9932" fill-opacity="1"><g transform="translate(208.229141, 210.32815)"><g><path d="M 12.5625 -61.9375 L 12.5625 0 L 6.703125 0 L 6.703125 -61.9375 Z M 12.5625 -61.9375 "/></g></g></g><g fill="#fe9932" fill-opacity="1"><g transform="translate(227.396465, 210.32815)"><g><path d="M 46.28125 -45.703125 L 46.28125 0 L 40.421875 0 L 40.421875 -8.03125 C 39.085938 -5.1875 37.023438 -3.007812 34.234375 -1.5 C 31.441406 0 28.316406 0.75 24.859375 0.75 C 19.390625 0.75 14.925781 -0.9375 11.46875 -4.3125 C 8.007812 -7.6875 6.28125 -12.582031 6.28125 -19 L 6.28125 -45.703125 L 12.046875 -45.703125 L 12.046875 -19.671875 C 12.046875 -14.703125 13.285156 -10.90625 15.765625 -8.28125 C 18.253906 -5.664062 21.648438 -4.359375 25.953125 -4.359375 C 30.359375 -4.359375 33.867188 -5.75 36.484375 -8.53125 C 39.109375 -11.320312 40.421875 -15.425781 40.421875 -20.84375 L 40.421875 -45.703125 Z M 46.28125 -45.703125 "/></g></g></g><g fill="#fe9932" fill-opacity="1"><g transform="translate(280.378626, 210.32815)"><g><path d="M 14.3125 -40.765625 L 14.3125 -12.390625 C 14.3125 -9.597656 14.84375 -7.671875 15.90625 -6.609375 C 16.96875 -5.546875 18.835938 -5.015625 21.515625 -5.015625 L 26.875 -5.015625 L 26.875 0 L 20.59375 0 C 16.457031 0 13.382812 -0.960938 11.375 -2.890625 C 9.375 -4.816406 8.375 -7.984375 8.375 -12.390625 L 8.375 -40.765625 L 2.015625 -40.765625 L 2.015625 -45.703125 L 8.375 -45.703125 L 8.375 -57.171875 L 14.3125 -57.171875 L 14.3125 -45.703125 L 26.875 -45.703125 L 26.875 -40.765625 Z M 14.3125 -40.765625 "/></g></g></g><g fill="#fe9932" fill-opacity="1"><g transform="translate(310.175863, 210.32815)"><g><path d="M 26.703125 0.671875 C 22.398438 0.671875 18.53125 -0.289062 15.09375 -2.21875 C 11.664062 -4.144531 8.960938 -6.878906 6.984375 -10.421875 C 5.003906 -13.960938 4.015625 -18.101562 4.015625 -22.84375 C 4.015625 -27.59375 5.019531 -31.738281 7.03125 -35.28125 C 9.039062 -38.820312 11.773438 -41.554688 15.234375 -43.484375 C 18.691406 -45.410156 22.570312 -46.375 26.875 -46.375 C 31.164062 -46.375 35.054688 -45.410156 38.546875 -43.484375 C 42.035156 -41.554688 44.769531 -38.820312 46.75 -35.28125 C 48.726562 -31.738281 49.71875 -27.59375 49.71875 -22.84375 C 49.71875 -18.15625 48.710938 -14.023438 46.703125 -10.453125 C 44.691406 -6.890625 41.925781 -4.144531 38.40625 -2.21875 C 34.894531 -0.289062 30.992188 0.671875 26.703125 0.671875 Z M 26.703125 -4.4375 C 29.710938 -4.4375 32.5 -5.117188 35.0625 -6.484375 C 37.632812 -7.847656 39.710938 -9.910156 41.296875 -12.671875 C 42.890625 -15.441406 43.6875 -18.832031 43.6875 -22.84375 C 43.6875 -26.863281 42.90625 -30.253906 41.34375 -33.015625 C 39.78125 -35.785156 37.71875 -37.851562 35.15625 -39.21875 C 32.59375 -40.582031 29.800781 -41.265625 26.78125 -41.265625 C 23.769531 -41.265625 20.976562 -40.582031 18.40625 -39.21875 C 15.84375 -37.851562 13.789062 -35.785156 12.25 -33.015625 C 10.71875 -30.253906 9.953125 -26.863281 9.953125 -22.84375 C 9.953125 -18.832031 10.71875 -15.441406 12.25 -12.671875 C 13.789062 -9.910156 15.832031 -7.847656 18.375 -6.484375 C 20.914062 -5.117188 23.691406 -4.4375 26.703125 -4.4375 Z M 26.703125 -4.4375 "/></g></g></g><g clip-path="url(#d1949cbb16)"><g clip-path="url(#b760ee827c)"><path fill="url(#4b8f24e2ee)" d="M 11.101562 247.667969 L 11.101562 112.691406 L 146.761719 112.691406 L 146.761719 247.667969 Z M 11.101562 247.667969 " fill-rule="nonzero"/></g></g><g clip-path="url(#c54db739d6)"><path fill="#ffcc99" d="M 38.96875 125.660156 C 41.914062 126.59375 46.082031 128.546875 49.1875 131.921875 C 54.128906 137.367188 63.527344 125.457031 73.292969 128.015625 C 83.058594 130.578125 81.507812 132.609375 87.308594 129.195312 C 93.109375 125.78125 96.378906 127.324219 99.445312 129.035156 C 102.507812 130.742188 109.535156 127.488281 114.644531 132.246094 C 118.445312 135.78125 124.820312 134.359375 127.84375 133.382812 C 115.460938 120.617188 98.136719 112.691406 78.933594 112.691406 C 63.976562 112.691406 50.167969 117.488281 38.96875 125.660156 Z M 38.96875 125.660156 " fill-opacity="1" fill-rule="evenodd"/></g><g clip-path="url(#a9d022a94e)"><path fill="#e46432" d="M 22.503906 142.734375 C 26.957031 143.386719 33.085938 145.09375 36.355469 149.441406 C 41.832031 156.761719 57.195312 148.589844 63.527344 150.132812 C 69.859375 151.679688 70.1875 157.289062 80.28125 157.941406 C 90.375 158.632812 95.644531 153.507812 100.464844 157.777344 C 105.246094 162.046875 122.164062 153.875 128.332031 156.070312 C 132.09375 157.410156 137.28125 154.6875 140.753906 152.328125 C 144.636719 160.828125 146.800781 170.257812 146.800781 180.179688 C 146.800781 217.460938 116.441406 247.667969 78.972656 247.667969 C 41.503906 247.667969 11.101562 217.460938 11.101562 180.179688 C 11.101562 166.316406 15.3125 153.46875 22.503906 142.734375 Z M 22.503906 142.734375 " fill-opacity="0.251" fill-rule="evenodd"/></g><g clip-path="url(#09487014e7)"><path fill="#e46432" d="M 16.863281 152.941406 C 20.011719 152.371094 24.628906 152.613281 26.589844 158.46875 C 29.652344 167.65625 30.347656 167.984375 35.824219 168.144531 C 41.300781 168.308594 44.199219 174.445312 44.527344 178.351562 C 44.855469 182.253906 48.449219 185.34375 52.371094 184.488281 C 56.296875 183.636719 59.890625 181.925781 62.097656 183.636719 C 64.304688 185.34375 69.125 172.414062 81.058594 175.625 C 92.988281 178.835938 99.527344 174.609375 102.261719 173.753906 C 105 172.902344 108.761719 172.578125 110.804688 175.464844 C 112.847656 178.351562 121.917969 176.316406 125.144531 174.773438 C 128.375 173.226562 137.117188 173.429688 139.855469 178.511719 C 141.285156 181.195312 144.226562 180.910156 146.71875 180.058594 L 146.71875 180.179688 C 146.71875 217.460938 116.359375 247.667969 78.890625 247.667969 C 41.421875 247.667969 11.101562 217.460938 11.101562 180.179688 C 11.101562 170.503906 13.144531 161.273438 16.863281 152.941406 Z M 16.863281 152.941406 " fill-opacity="0.349" fill-rule="evenodd"/></g><g clip-path="url(#9b8d849ea6)"><path fill="#e46432" d="M 12.453125 166.761719 C 14.863281 167.574219 18.335938 169.324219 19.070312 172.78125 C 20.257812 178.226562 22.300781 180.097656 28.304688 179.246094 C 34.3125 178.390625 37.214844 189.613281 36.152344 191.644531 C 35.128906 193.675781 40.074219 198.273438 44.691406 199.125 C 49.308594 199.980469 47.917969 204.207031 50.328125 207.296875 C 52.742188 210.347656 62.136719 202.703125 73.578125 208.3125 C 85.019531 213.925781 106.226562 215.46875 111.335938 213.761719 C 113.378906 213.070312 137.976562 201.523438 139.121094 211.28125 C 127.84375 232.910156 105.125 247.667969 78.933594 247.667969 C 41.460938 247.667969 11.101562 217.460938 11.101562 180.179688 C 11.101562 175.585938 11.554688 171.074219 12.453125 166.761719 Z M 12.453125 166.761719 " fill-opacity="0.549" fill-rule="evenodd"/></g><g clip-path="url(#84dfde25ad)"><g clip-path="url(#6ef349516c)"><path fill="url(#3608d2e883)" d="M 20.175781 247.667969 L 20.175781 178.796875 L 142.308594 178.796875 L 142.308594 247.667969 Z M 20.175781 247.667969 " fill-rule="nonzero"/></g></g><path fill="#99ffff" d="M 71.453125 113.097656 C 69.492188 114.761719 68.023438 117.242188 68.023438 120.902344 C 68.023438 131.796875 70.066406 135.539062 59.484375 138.261719 C 48.898438 140.988281 51.964844 145.378906 50.246094 158.304688 C 48.53125 171.234375 34.109375 154.320312 26.875 159.363281 C 19.683594 164.40625 18.949219 153.792969 12.535156 166.234375 C 18.5 138.019531 42.15625 116.308594 71.453125 113.097656 Z M 144.636719 163.347656 C 143.207031 164.769531 140.957031 165.949219 137.527344 166.113281 C 127.433594 166.640625 124.941406 172.578125 125.554688 178.023438 C 126.167969 183.472656 118.527344 187.214844 119.382812 190.628906 C 120.242188 194.042969 125.351562 196.929688 126.207031 200.832031 C 127.066406 204.734375 118.363281 204.734375 116.972656 209.695312 C 115.625 214.617188 119.710938 221.445312 115.09375 224.332031 C 110.476562 227.21875 104.59375 231.570312 105.53125 236.734375 C 106.472656 241.894531 93.929688 246.042969 93.929688 246.042969 C 124.207031 239.210938 146.761719 212.296875 146.761719 180.179688 C 146.761719 174.367188 146.027344 168.753906 144.636719 163.347656 Z M 87.023438 150.296875 C 86 149.769531 78.808594 142.652344 71.453125 147.410156 C 64.101562 152.167969 63.9375 153.550781 59.484375 154.566406 C 55.027344 155.582031 58.460938 161.355469 62.382812 161.964844 C 66.304688 162.574219 66.386719 162.289062 70.066406 165.097656 C 73.742188 167.902344 76.03125 160.175781 81.425781 161.03125 C 86.816406 161.882812 91.640625 154.484375 87.023438 150.296875 Z M 87.023438 150.296875 " fill-opacity="0.251" fill-rule="evenodd"/><path fill="#47077f" d="M 140.671875 152.207031 C 151.296875 224.332031 68.757812 261.941406 22.871094 218.152344 C 25.242188 221.566406 27.9375 224.859375 31.003906 227.910156 C 57.480469 254.253906 100.425781 254.253906 126.945312 227.910156 C 147.457031 207.417969 152.074219 177.089844 140.671875 152.207031 Z M 140.671875 152.207031 " fill-opacity="0.149" fill-rule="evenodd"/></svg>