<svg xmlns="http://www.w3.org/2000/svg" xmlns:xlink="http://www.w3.org/1999/xlink" width="500" zoomAndPan="magnify" viewBox="0 0 375 374.999991" height="500" preserveAspectRatio="xMidYMid meet" version="1.0"><defs><g/></defs><g fill="#fe9932" fill-opacity="1"><g transform="translate(10.445678, 236.249992)"><g><path d="M 20.8125 -59.5 C 23.238281 -64.625 27.082031 -68.882812 32.34375 -72.28125 C 37.601562 -75.6875 43.863281 -77.390625 51.125 -77.390625 C 58.019531 -77.390625 64.234375 -75.78125 69.765625 -72.5625 C 75.304688 -69.351562 79.632812 -64.789062 82.75 -58.875 C 85.875 -52.96875 87.4375 -46.101562 87.4375 -38.28125 C 87.4375 -30.457031 85.875 -23.5625 82.75 -17.59375 C 79.632812 -11.632812 75.304688 -7.023438 69.765625 -3.765625 C 64.234375 -0.503906 58.019531 1.125 51.125 1.125 C 43.957031 1.125 37.71875 -0.570312 32.40625 -3.96875 C 27.101562 -7.375 23.238281 -11.640625 20.8125 -16.765625 L 20.8125 36.046875 L 11.171875 36.046875 L 11.171875 -76.265625 L 20.8125 -76.265625 Z M 77.53125 -38.28125 C 77.53125 -44.601562 76.296875 -50.070312 73.828125 -54.6875 C 71.359375 -59.300781 67.976562 -62.816406 63.6875 -65.234375 C 59.40625 -67.648438 54.566406 -68.859375 49.171875 -68.859375 C 43.953125 -68.859375 39.175781 -67.601562 34.84375 -65.09375 C 30.519531 -62.582031 27.097656 -59 24.578125 -54.34375 C 22.066406 -49.6875 20.8125 -44.285156 20.8125 -38.140625 C 20.8125 -31.992188 22.066406 -26.59375 24.578125 -21.9375 C 27.097656 -17.28125 30.519531 -13.691406 34.84375 -11.171875 C 39.175781 -8.660156 43.953125 -7.40625 49.171875 -7.40625 C 54.566406 -7.40625 59.40625 -8.640625 63.6875 -11.109375 C 67.976562 -13.578125 71.359375 -17.160156 73.828125 -21.859375 C 76.296875 -26.566406 77.53125 -32.039062 77.53125 -38.28125 Z M 77.53125 -38.28125 "/></g></g></g><g fill="#fe9932" fill-opacity="1"><g transform="translate(104.734723, 236.249992)"><g><path d="M 20.953125 -103.375 L 20.953125 0 L 11.171875 0 L 11.171875 -103.375 Z M 20.953125 -103.375 "/></g></g></g><g fill="#fe9932" fill-opacity="1"><g transform="translate(136.723155, 236.249992)"><g><path d="M 77.25 -76.265625 L 77.25 0 L 67.46875 0 L 67.46875 -13.40625 C 65.226562 -8.65625 61.78125 -5.023438 57.125 -2.515625 C 52.46875 -0.00390625 47.253906 1.25 41.484375 1.25 C 32.359375 1.25 24.910156 -1.5625 19.140625 -7.1875 C 13.367188 -12.820312 10.484375 -20.992188 10.484375 -31.703125 L 10.484375 -76.265625 L 20.109375 -76.265625 L 20.109375 -32.828125 C 20.109375 -24.535156 22.179688 -18.203125 26.328125 -13.828125 C 30.472656 -9.453125 36.128906 -7.265625 43.296875 -7.265625 C 50.660156 -7.265625 56.53125 -9.59375 60.90625 -14.25 C 65.28125 -18.90625 67.46875 -25.75 67.46875 -34.78125 L 67.46875 -76.265625 Z M 77.25 -76.265625 "/></g></g></g><g fill="#fe9932" fill-opacity="1"><g transform="translate(225.145318, 236.249992)"><g><path d="M 23.890625 -68.03125 L 23.890625 -20.671875 C 23.890625 -16.015625 24.769531 -12.800781 26.53125 -11.03125 C 28.300781 -9.257812 31.425781 -8.375 35.90625 -8.375 L 44.84375 -8.375 L 44.84375 0 L 34.359375 0 C 27.472656 0 22.351562 -1.601562 19 -4.8125 C 15.644531 -8.03125 13.96875 -13.316406 13.96875 -20.671875 L 13.96875 -68.03125 L 3.359375 -68.03125 L 3.359375 -76.265625 L 13.96875 -76.265625 L 13.96875 -95.40625 L 23.890625 -95.40625 L 23.890625 -76.265625 L 44.84375 -76.265625 L 44.84375 -68.03125 Z M 23.890625 -68.03125 "/></g></g></g><g fill="#fe9932" fill-opacity="1"><g transform="translate(274.874059, 236.249992)"><g><path d="M 44.5625 1.125 C 37.382812 1.125 30.929688 -0.476562 25.203125 -3.6875 C 19.484375 -6.90625 14.96875 -11.472656 11.65625 -17.390625 C 8.351562 -23.304688 6.703125 -30.222656 6.703125 -38.140625 C 6.703125 -46.054688 8.378906 -52.96875 11.734375 -58.875 C 15.085938 -64.789062 19.648438 -69.351562 25.421875 -72.5625 C 31.191406 -75.78125 37.664062 -77.390625 44.84375 -77.390625 C 52.007812 -77.390625 58.503906 -75.78125 64.328125 -72.5625 C 70.148438 -69.351562 74.710938 -64.789062 78.015625 -58.875 C 81.316406 -52.96875 82.96875 -46.054688 82.96875 -38.140625 C 82.96875 -30.316406 81.289062 -23.421875 77.9375 -17.453125 C 74.59375 -11.492188 69.984375 -6.90625 64.109375 -3.6875 C 58.242188 -0.476562 51.726562 1.125 44.5625 1.125 Z M 44.5625 -7.40625 C 49.59375 -7.40625 54.25 -8.546875 58.53125 -10.828125 C 62.8125 -13.109375 66.28125 -16.550781 68.9375 -21.15625 C 71.59375 -25.769531 72.921875 -31.429688 72.921875 -38.140625 C 72.921875 -44.835938 71.613281 -50.488281 69 -55.09375 C 66.394531 -59.707031 62.953125 -63.15625 58.671875 -65.4375 C 54.390625 -67.71875 49.734375 -68.859375 44.703125 -68.859375 C 39.671875 -68.859375 35.015625 -67.71875 30.734375 -65.4375 C 26.453125 -63.15625 23.03125 -59.707031 20.46875 -55.09375 C 17.90625 -50.488281 16.625 -44.835938 16.625 -38.140625 C 16.625 -31.429688 17.90625 -25.769531 20.46875 -21.15625 C 23.03125 -16.550781 26.425781 -13.109375 30.65625 -10.828125 C 34.894531 -8.546875 39.53125 -7.40625 44.5625 -7.40625 Z M 44.5625 -7.40625 "/></g></g></g></svg>